<svg width="506" height="534" viewBox="0 0 506 534" fill="none" xmlns="http://www.w3.org/2000/svg">
<rect width="506" height="534" fill="white"/>
<rect x="109.5" y="58.5" width="54" height="340" stroke="#FF00B8" stroke-width="3"/>
<path d="M338.5 87.5C338.5 103.666 326.717 116.5 312.5 116.5C298.283 116.5 286.5 103.666 286.5 87.5C286.5 71.3339 298.283 58.5 312.5 58.5C326.717 58.5 338.5 71.3339 338.5 87.5Z" stroke="#3300FF" stroke-width="3"/>
<path d="M338.5 158C338.5 173.866 326.739 186.5 312.5 186.5C298.261 186.5 286.5 173.866 286.5 158C286.5 142.134 298.261 129.5 312.5 129.5C326.739 129.5 338.5 142.134 338.5 158Z" stroke="#3300FF" stroke-width="3"/>
<path d="M338.5 228.5C338.5 244.666 326.717 257.5 312.5 257.5C298.283 257.5 286.5 244.666 286.5 228.5C286.5 212.334 298.283 199.5 312.5 199.5C326.717 199.5 338.5 212.334 338.5 228.5Z" stroke="#3300FF" stroke-width="3"/>
<path d="M348.5 299C348.5 314.629 334.736 327.5 317.5 327.5C300.264 327.5 286.5 314.629 286.5 299C286.5 283.371 300.264 270.5 317.5 270.5C334.736 270.5 348.5 283.371 348.5 299Z" stroke="#3300FF" stroke-width="3"/>
<path d="M348.5 369.5C348.5 385.428 334.712 398.5 317.5 398.5C300.288 398.5 286.5 385.428 286.5 369.5C286.5 353.572 300.288 340.5 317.5 340.5C334.712 340.5 348.5 353.572 348.5 369.5Z" stroke="#3300FF" stroke-width="3"/>
<path d="M270.873 82.3604C271.447 81.7602 271.428 80.8107 270.831 80.2395L261.097 70.9314C260.5 70.3602 259.551 70.3837 258.977 70.9838C258.403 71.584 258.422 72.5335 259.019 73.1047L267.671 81.3786L259.358 90.0719C258.784 90.6721 258.803 91.6216 259.4 92.1928C259.998 92.764 260.947 92.7405 261.521 92.1404L270.873 82.3604ZM171.435 85.2585L269.822 82.8258L269.762 79.8264L171.375 82.2591L171.435 85.2585Z" fill="#AFACAC"/>
<path d="M270.873 162.637C271.447 162.037 271.428 161.087 270.831 160.516L261.097 151.208C260.5 150.637 259.551 150.66 258.977 151.26C258.403 151.861 258.422 152.81 259.019 153.381L267.671 161.655L259.358 170.349C258.784 170.949 258.803 171.898 259.4 172.469C259.998 173.041 260.947 173.017 261.521 172.417L270.873 162.637ZM171.435 165.535L269.822 163.102L269.762 160.103L171.375 162.536L171.435 165.535Z" fill="#AFACAC"/>
<path d="M275.246 303.729C275.82 303.129 275.801 302.18 275.204 301.608L265.47 292.3C264.873 291.729 263.923 291.753 263.349 292.353C262.775 292.953 262.794 293.902 263.392 294.474L272.044 302.747L263.73 311.441C263.157 312.041 263.176 312.991 263.773 313.562C264.37 314.133 265.32 314.109 265.893 313.509L275.246 303.729ZM175.807 306.627L274.194 304.195L274.134 301.195L175.747 303.628L175.807 306.627Z" fill="#AFACAC"/>
<path d="M275.246 371.843C275.82 371.243 275.801 370.293 275.204 369.722L265.47 360.414C264.873 359.843 263.923 359.866 263.349 360.466C262.775 361.066 262.794 362.016 263.392 362.587L272.044 370.861L263.73 379.554C263.157 380.154 263.176 381.104 263.773 381.675C264.37 382.246 265.32 382.223 265.893 381.623L275.246 371.843ZM175.807 374.741L274.194 372.308L274.134 369.309L175.747 371.742L175.807 374.741Z" fill="#AFACAC"/>
<path d="M205.96 245.205C205.33 245.205 204.788 244.979 204.337 244.527C203.885 244.075 203.659 243.534 203.659 242.903C203.659 242.273 203.885 241.732 204.337 241.28C204.788 240.828 205.33 240.602 205.96 240.602C206.591 240.602 207.132 240.828 207.584 241.28C208.036 241.732 208.261 242.273 208.261 242.903C208.261 243.321 208.155 243.705 207.942 244.054C207.737 244.403 207.46 244.685 207.111 244.898C206.77 245.102 206.386 245.205 205.96 245.205ZM215.874 245.205C215.244 245.205 214.702 244.979 214.251 244.527C213.799 244.075 213.573 243.534 213.573 242.903C213.573 242.273 213.799 241.732 214.251 241.28C214.702 240.828 215.244 240.602 215.874 240.602C216.505 240.602 217.046 240.828 217.498 241.28C217.95 241.732 218.175 242.273 218.175 242.903C218.175 243.321 218.069 243.705 217.856 244.054C217.651 244.403 217.374 244.685 217.025 244.898C216.684 245.102 216.3 245.205 215.874 245.205ZM225.788 245.205C225.158 245.205 224.616 244.979 224.165 244.527C223.713 244.075 223.487 243.534 223.487 242.903C223.487 242.273 223.713 241.732 224.165 241.28C224.616 240.828 225.158 240.602 225.788 240.602C226.419 240.602 226.96 240.828 227.412 241.28C227.864 241.732 228.089 242.273 228.089 242.903C228.089 243.321 227.983 243.705 227.77 244.054C227.565 244.403 227.288 244.685 226.939 244.898C226.598 245.102 226.214 245.205 225.788 245.205Z" fill="black"/>
<path d="M115.807 89V87.4659L121.568 81.1591C122.244 80.4205 122.801 79.7784 123.239 79.233C123.676 78.6818 124 78.1648 124.21 77.6818C124.426 77.1932 124.534 76.6818 124.534 76.1477C124.534 75.5341 124.386 75.0028 124.091 74.554C123.801 74.1051 123.403 73.7585 122.898 73.5142C122.392 73.2699 121.824 73.1477 121.193 73.1477C120.523 73.1477 119.938 73.2869 119.438 73.5653C118.943 73.8381 118.56 74.2216 118.287 74.7159C118.02 75.2102 117.886 75.7898 117.886 76.4545H115.875C115.875 75.4318 116.111 74.5341 116.582 73.7614C117.054 72.9886 117.696 72.3864 118.509 71.9545C119.327 71.5227 120.244 71.3068 121.261 71.3068C122.284 71.3068 123.19 71.5227 123.98 71.9545C124.77 72.3864 125.389 72.9687 125.838 73.7017C126.287 74.4347 126.511 75.25 126.511 76.1477C126.511 76.7898 126.395 77.4176 126.162 78.0312C125.935 78.6392 125.537 79.3182 124.969 80.0682C124.406 80.8125 123.625 81.7216 122.625 82.7955L118.705 86.9886V87.125H126.818V89H115.807ZM129.554 85.4205V83.6818L137.224 71.5455H138.486V74.2386H137.634L131.838 83.4091V83.5455H142.168V85.4205H129.554ZM137.77 89V84.892V84.0824V71.5455H139.781V89H137.77ZM150.816 89.2386C149.816 89.2386 148.915 89.0398 148.114 88.642C147.313 88.2443 146.671 87.6989 146.188 87.0057C145.705 86.3125 145.441 85.5227 145.396 84.6364H147.441C147.521 85.4261 147.879 86.0795 148.515 86.5966C149.157 87.108 149.924 87.3636 150.816 87.3636C151.532 87.3636 152.168 87.196 152.725 86.8608C153.288 86.5256 153.728 86.0653 154.046 85.4801C154.37 84.8892 154.532 84.2216 154.532 83.4773C154.532 82.7159 154.364 82.0369 154.029 81.4403C153.7 80.8381 153.245 80.3636 152.665 80.017C152.086 79.6705 151.424 79.4943 150.68 79.4886C150.146 79.483 149.597 79.5653 149.035 79.7358C148.472 79.9006 148.009 80.1136 147.646 80.375L145.668 80.1364L146.725 71.5455H155.793V73.4205H148.498L147.884 78.5682H147.987C148.344 78.2841 148.793 78.0483 149.333 77.8608C149.873 77.6733 150.435 77.5795 151.021 77.5795C152.089 77.5795 153.04 77.8352 153.876 78.3466C154.717 78.8523 155.376 79.5455 155.853 80.4261C156.336 81.3068 156.577 82.3125 156.577 83.4432C156.577 84.5568 156.327 85.5511 155.827 86.4261C155.333 87.2955 154.651 87.983 153.782 88.4886C152.913 88.9886 151.924 89.2386 150.816 89.2386ZM122.557 118V116.466L128.318 110.159C128.994 109.42 129.551 108.778 129.989 108.233C130.426 107.682 130.75 107.165 130.96 106.682C131.176 106.193 131.284 105.682 131.284 105.148C131.284 104.534 131.136 104.003 130.841 103.554C130.551 103.105 130.153 102.759 129.648 102.514C129.142 102.27 128.574 102.148 127.943 102.148C127.273 102.148 126.688 102.287 126.188 102.565C125.693 102.838 125.31 103.222 125.037 103.716C124.77 104.21 124.636 104.79 124.636 105.455H122.625C122.625 104.432 122.861 103.534 123.332 102.761C123.804 101.989 124.446 101.386 125.259 100.955C126.077 100.523 126.994 100.307 128.011 100.307C129.034 100.307 129.94 100.523 130.73 100.955C131.52 101.386 132.139 101.969 132.588 102.702C133.037 103.435 133.261 104.25 133.261 105.148C133.261 105.79 133.145 106.418 132.912 107.031C132.685 107.639 132.287 108.318 131.719 109.068C131.156 109.812 130.375 110.722 129.375 111.795L125.455 115.989V116.125H133.568V118H122.557ZM142.543 118.239C141.543 118.239 140.642 118.04 139.841 117.642C139.04 117.244 138.398 116.699 137.915 116.006C137.432 115.312 137.168 114.523 137.122 113.636H139.168C139.247 114.426 139.605 115.08 140.241 115.597C140.884 116.108 141.651 116.364 142.543 116.364C143.259 116.364 143.895 116.196 144.452 115.861C145.014 115.526 145.455 115.065 145.773 114.48C146.097 113.889 146.259 113.222 146.259 112.477C146.259 111.716 146.091 111.037 145.756 110.44C145.426 109.838 144.972 109.364 144.392 109.017C143.813 108.67 143.151 108.494 142.406 108.489C141.872 108.483 141.324 108.565 140.761 108.736C140.199 108.901 139.736 109.114 139.372 109.375L137.395 109.136L138.452 100.545H147.52V102.42H140.224L139.611 107.568H139.713C140.071 107.284 140.52 107.048 141.06 106.861C141.599 106.673 142.162 106.58 142.747 106.58C143.815 106.58 144.767 106.835 145.602 107.347C146.443 107.852 147.102 108.545 147.58 109.426C148.062 110.307 148.304 111.312 148.304 112.443C148.304 113.557 148.054 114.551 147.554 115.426C147.06 116.295 146.378 116.983 145.509 117.489C144.639 117.989 143.651 118.239 142.543 118.239ZM121.943 129.545V147H119.83V131.761H119.727L115.466 134.591V132.443L119.83 129.545H121.943ZM126.963 147V145.466L132.724 139.159C133.401 138.42 133.957 137.778 134.395 137.233C134.832 136.682 135.156 136.165 135.366 135.682C135.582 135.193 135.69 134.682 135.69 134.148C135.69 133.534 135.543 133.003 135.247 132.554C134.957 132.105 134.56 131.759 134.054 131.514C133.548 131.27 132.98 131.148 132.349 131.148C131.679 131.148 131.094 131.287 130.594 131.565C130.099 131.838 129.716 132.222 129.443 132.716C129.176 133.21 129.043 133.79 129.043 134.455H127.031C127.031 133.432 127.267 132.534 127.739 131.761C128.21 130.989 128.852 130.386 129.665 129.955C130.483 129.523 131.401 129.307 132.418 129.307C133.44 129.307 134.347 129.523 135.136 129.955C135.926 130.386 136.545 130.969 136.994 131.702C137.443 132.435 137.668 133.25 137.668 134.148C137.668 134.79 137.551 135.418 137.318 136.031C137.091 136.639 136.693 137.318 136.125 138.068C135.562 138.812 134.781 139.722 133.781 140.795L129.861 144.989V145.125H137.974V147H126.963ZM147.392 147.239C146.267 147.239 145.264 147.045 144.384 146.659C143.509 146.273 142.813 145.736 142.295 145.048C141.784 144.355 141.506 143.551 141.46 142.636H143.608C143.653 143.199 143.847 143.685 144.188 144.094C144.528 144.497 144.974 144.81 145.526 145.031C146.077 145.253 146.688 145.364 147.358 145.364C148.108 145.364 148.773 145.233 149.352 144.972C149.932 144.71 150.386 144.347 150.716 143.881C151.045 143.415 151.21 142.875 151.21 142.261C151.21 141.619 151.051 141.054 150.733 140.565C150.415 140.071 149.949 139.685 149.335 139.406C148.722 139.128 147.972 138.989 147.085 138.989H145.688V137.114H147.085C147.778 137.114 148.386 136.989 148.909 136.739C149.438 136.489 149.849 136.136 150.145 135.682C150.446 135.227 150.597 134.693 150.597 134.08C150.597 133.489 150.466 132.974 150.205 132.537C149.943 132.099 149.574 131.759 149.097 131.514C148.625 131.27 148.068 131.148 147.426 131.148C146.824 131.148 146.256 131.259 145.722 131.48C145.193 131.696 144.761 132.011 144.426 132.426C144.091 132.835 143.909 133.33 143.881 133.909H141.835C141.869 132.994 142.145 132.193 142.662 131.506C143.179 130.812 143.855 130.273 144.69 129.886C145.531 129.5 146.455 129.307 147.46 129.307C148.54 129.307 149.466 129.526 150.239 129.963C151.011 130.395 151.605 130.966 152.02 131.676C152.435 132.386 152.642 133.153 152.642 133.977C152.642 134.96 152.384 135.798 151.866 136.491C151.355 137.185 150.659 137.665 149.778 137.932V138.068C150.881 138.25 151.741 138.719 152.361 139.474C152.98 140.224 153.29 141.153 153.29 142.261C153.29 143.21 153.031 144.062 152.514 144.818C152.003 145.568 151.304 146.159 150.418 146.591C149.531 147.023 148.523 147.239 147.392 147.239ZM129.307 176V174.466L135.068 168.159C135.744 167.42 136.301 166.778 136.739 166.233C137.176 165.682 137.5 165.165 137.71 164.682C137.926 164.193 138.034 163.682 138.034 163.148C138.034 162.534 137.886 162.003 137.591 161.554C137.301 161.105 136.903 160.759 136.398 160.514C135.892 160.27 135.324 160.148 134.693 160.148C134.023 160.148 133.438 160.287 132.938 160.565C132.443 160.838 132.06 161.222 131.787 161.716C131.52 162.21 131.386 162.79 131.386 163.455H129.375C129.375 162.432 129.611 161.534 130.082 160.761C130.554 159.989 131.196 159.386 132.009 158.955C132.827 158.523 133.744 158.307 134.761 158.307C135.784 158.307 136.69 158.523 137.48 158.955C138.27 159.386 138.889 159.969 139.338 160.702C139.787 161.435 140.011 162.25 140.011 163.148C140.011 163.79 139.895 164.418 139.662 165.031C139.435 165.639 139.037 166.318 138.469 167.068C137.906 167.812 137.125 168.722 136.125 169.795L132.205 173.989V174.125H140.318V176H129.307ZM124.057 234.136C123.636 234.136 123.276 233.986 122.974 233.685C122.673 233.384 122.523 233.023 122.523 232.602C122.523 232.182 122.673 231.821 122.974 231.52C123.276 231.219 123.636 231.068 124.057 231.068C124.477 231.068 124.838 231.219 125.139 231.52C125.44 231.821 125.591 232.182 125.591 232.602C125.591 232.881 125.52 233.136 125.378 233.369C125.241 233.602 125.057 233.79 124.824 233.932C124.597 234.068 124.341 234.136 124.057 234.136ZM130.666 234.136C130.246 234.136 129.885 233.986 129.584 233.685C129.283 233.384 129.132 233.023 129.132 232.602C129.132 232.182 129.283 231.821 129.584 231.52C129.885 231.219 130.246 231.068 130.666 231.068C131.087 231.068 131.447 231.219 131.749 231.52C132.05 231.821 132.2 232.182 132.2 232.602C132.2 232.881 132.129 233.136 131.987 233.369C131.851 233.602 131.666 233.79 131.433 233.932C131.206 234.068 130.95 234.136 130.666 234.136ZM137.276 234.136C136.855 234.136 136.494 233.986 136.193 233.685C135.892 233.384 135.741 233.023 135.741 232.602C135.741 232.182 135.892 231.821 136.193 231.52C136.494 231.219 136.855 231.068 137.276 231.068C137.696 231.068 138.057 231.219 138.358 231.52C138.659 231.821 138.81 232.182 138.81 232.602C138.81 232.881 138.739 233.136 138.597 233.369C138.46 233.602 138.276 233.79 138.043 233.932C137.815 234.068 137.56 234.136 137.276 234.136ZM143.885 234.136C143.464 234.136 143.104 233.986 142.803 233.685C142.501 233.384 142.351 233.023 142.351 232.602C142.351 232.182 142.501 231.821 142.803 231.52C143.104 231.219 143.464 231.068 143.885 231.068C144.305 231.068 144.666 231.219 144.967 231.52C145.268 231.821 145.419 232.182 145.419 232.602C145.419 232.881 145.348 233.136 145.206 233.369C145.07 233.602 144.885 233.79 144.652 233.932C144.425 234.068 144.169 234.136 143.885 234.136ZM128.693 303.545V321H126.58V305.761H126.477L122.216 308.591V306.443L126.58 303.545H128.693ZM139.849 303.545V321H137.736V305.761H137.634L133.372 308.591V306.443L137.736 303.545H139.849ZM151.006 303.545V321H148.892V305.761H148.79L144.528 308.591V306.443L148.892 303.545H151.006ZM115.807 350V348.466L121.568 342.159C122.244 341.42 122.801 340.778 123.239 340.233C123.676 339.682 124 339.165 124.21 338.682C124.426 338.193 124.534 337.682 124.534 337.148C124.534 336.534 124.386 336.003 124.091 335.554C123.801 335.105 123.403 334.759 122.898 334.514C122.392 334.27 121.824 334.148 121.193 334.148C120.523 334.148 119.938 334.287 119.438 334.565C118.943 334.838 118.56 335.222 118.287 335.716C118.02 336.21 117.886 336.79 117.886 337.455H115.875C115.875 336.432 116.111 335.534 116.582 334.761C117.054 333.989 117.696 333.386 118.509 332.955C119.327 332.523 120.244 332.307 121.261 332.307C122.284 332.307 123.19 332.523 123.98 332.955C124.77 333.386 125.389 333.969 125.838 334.702C126.287 335.435 126.511 336.25 126.511 337.148C126.511 337.79 126.395 338.418 126.162 339.031C125.935 339.639 125.537 340.318 124.969 341.068C124.406 341.812 123.625 342.722 122.625 343.795L118.705 347.989V348.125H126.818V350H115.807ZM136.474 332.545V350H134.361V334.761H134.259L129.997 337.591V335.443L134.361 332.545H136.474ZM141.494 350V348.466L147.256 342.159C147.932 341.42 148.489 340.778 148.926 340.233C149.364 339.682 149.688 339.165 149.898 338.682C150.114 338.193 150.222 337.682 150.222 337.148C150.222 336.534 150.074 336.003 149.778 335.554C149.489 335.105 149.091 334.759 148.585 334.514C148.08 334.27 147.511 334.148 146.881 334.148C146.21 334.148 145.625 334.287 145.125 334.565C144.631 334.838 144.247 335.222 143.974 335.716C143.707 336.21 143.574 336.79 143.574 337.455H141.562C141.562 336.432 141.798 335.534 142.27 334.761C142.741 333.989 143.384 333.386 144.196 332.955C145.014 332.523 145.932 332.307 146.949 332.307C147.972 332.307 148.878 332.523 149.668 332.955C150.457 333.386 151.077 333.969 151.526 334.702C151.974 335.435 152.199 336.25 152.199 337.148C152.199 337.79 152.082 338.418 151.849 339.031C151.622 339.639 151.224 340.318 150.656 341.068C150.094 341.812 149.312 342.722 148.312 343.795L144.392 347.989V348.125H152.506V350H141.494ZM115.807 379V377.466L121.568 371.159C122.244 370.42 122.801 369.778 123.239 369.233C123.676 368.682 124 368.165 124.21 367.682C124.426 367.193 124.534 366.682 124.534 366.148C124.534 365.534 124.386 365.003 124.091 364.554C123.801 364.105 123.403 363.759 122.898 363.514C122.392 363.27 121.824 363.148 121.193 363.148C120.523 363.148 119.938 363.287 119.438 363.565C118.943 363.838 118.56 364.222 118.287 364.716C118.02 365.21 117.886 365.79 117.886 366.455H115.875C115.875 365.432 116.111 364.534 116.582 363.761C117.054 362.989 117.696 362.386 118.509 361.955C119.327 361.523 120.244 361.307 121.261 361.307C122.284 361.307 123.19 361.523 123.98 361.955C124.77 362.386 125.389 362.969 125.838 363.702C126.287 364.435 126.511 365.25 126.511 366.148C126.511 366.79 126.395 367.418 126.162 368.031C125.935 368.639 125.537 369.318 124.969 370.068C124.406 370.812 123.625 371.722 122.625 372.795L118.705 376.989V377.125H126.818V379H115.807ZM135.793 379.239C134.793 379.239 133.892 379.04 133.091 378.642C132.29 378.244 131.648 377.699 131.165 377.006C130.682 376.312 130.418 375.523 130.372 374.636H132.418C132.497 375.426 132.855 376.08 133.491 376.597C134.134 377.108 134.901 377.364 135.793 377.364C136.509 377.364 137.145 377.196 137.702 376.861C138.264 376.526 138.705 376.065 139.023 375.48C139.347 374.889 139.509 374.222 139.509 373.477C139.509 372.716 139.341 372.037 139.006 371.44C138.676 370.838 138.222 370.364 137.642 370.017C137.063 369.67 136.401 369.494 135.656 369.489C135.122 369.483 134.574 369.565 134.011 369.736C133.449 369.901 132.986 370.114 132.622 370.375L130.645 370.136L131.702 361.545H140.77V363.42H133.474L132.861 368.568H132.963C133.321 368.284 133.77 368.048 134.31 367.861C134.849 367.673 135.412 367.58 135.997 367.58C137.065 367.58 138.017 367.835 138.852 368.347C139.693 368.852 140.352 369.545 140.83 370.426C141.312 371.307 141.554 372.312 141.554 373.443C141.554 374.557 141.304 375.551 140.804 376.426C140.31 377.295 139.628 377.983 138.759 378.489C137.889 378.989 136.901 379.239 135.793 379.239ZM150.394 379.239C149.394 379.239 148.494 379.04 147.692 378.642C146.891 378.244 146.249 377.699 145.766 377.006C145.283 376.312 145.019 375.523 144.974 374.636H147.019C147.099 375.426 147.457 376.08 148.093 376.597C148.735 377.108 149.502 377.364 150.394 377.364C151.11 377.364 151.746 377.196 152.303 376.861C152.866 376.526 153.306 376.065 153.624 375.48C153.948 374.889 154.11 374.222 154.11 373.477C154.11 372.716 153.942 372.037 153.607 371.44C153.278 370.838 152.823 370.364 152.244 370.017C151.664 369.67 151.002 369.494 150.258 369.489C149.724 369.483 149.175 369.565 148.613 369.736C148.05 369.901 147.587 370.114 147.224 370.375L145.246 370.136L146.303 361.545H155.371V363.42H148.076L147.462 368.568H147.565C147.923 368.284 148.371 368.048 148.911 367.861C149.451 367.673 150.013 367.58 150.599 367.58C151.667 367.58 152.619 367.835 153.454 368.347C154.295 368.852 154.954 369.545 155.431 370.426C155.914 371.307 156.156 372.312 156.156 373.443C156.156 374.557 155.906 375.551 155.406 376.426C154.911 377.295 154.229 377.983 153.36 378.489C152.491 378.989 151.502 379.239 150.394 379.239Z" fill="black"/>
<path d="M203.341 59.8182L199.591 73.75H198.364L202.114 59.8182H203.341ZM204.908 72V70.9773L208.749 66.7727C209.199 66.2803 209.571 65.8523 209.862 65.4886C210.154 65.1212 210.37 64.7765 210.51 64.4545C210.654 64.1288 210.726 63.7879 210.726 63.4318C210.726 63.0227 210.627 62.6686 210.43 62.3693C210.237 62.0701 209.972 61.839 209.635 61.6761C209.298 61.5133 208.919 61.4318 208.499 61.4318C208.052 61.4318 207.661 61.5246 207.328 61.7102C206.999 61.892 206.743 62.1477 206.561 62.4773C206.383 62.8068 206.294 63.1932 206.294 63.6364H204.953C204.953 62.9545 205.11 62.3561 205.425 61.8409C205.739 61.3258 206.167 60.9242 206.709 60.6364C207.254 60.3485 207.866 60.2045 208.544 60.2045C209.226 60.2045 209.83 60.3485 210.357 60.6364C210.883 60.9242 211.296 61.3125 211.595 61.8011C211.894 62.2898 212.044 62.8333 212.044 63.4318C212.044 63.8598 211.966 64.2784 211.811 64.6875C211.66 65.0928 211.394 65.5455 211.016 66.0455C210.641 66.5417 210.12 67.1477 209.453 67.8636L206.839 70.6591V70.75H212.249V72H204.908ZM218.232 72.1591C217.565 72.1591 216.964 72.0265 216.43 71.7614C215.896 71.4962 215.468 71.1326 215.146 70.6705C214.824 70.2083 214.648 69.6818 214.618 69.0909H215.982C216.035 69.6174 216.273 70.053 216.697 70.3977C217.125 70.7386 217.637 70.9091 218.232 70.9091C218.709 70.9091 219.133 70.7973 219.504 70.5739C219.879 70.3504 220.173 70.0436 220.385 69.6534C220.601 69.2595 220.709 68.8144 220.709 68.3182C220.709 67.8106 220.597 67.358 220.374 66.9602C220.154 66.5587 219.851 66.2424 219.464 66.0114C219.078 65.7803 218.637 65.6629 218.141 65.6591C217.785 65.6553 217.419 65.7102 217.044 65.8239C216.669 65.9337 216.36 66.0758 216.118 66.25L214.8 66.0909L215.504 60.3636H221.55V61.6136H216.686L216.277 65.0455H216.345C216.584 64.8561 216.883 64.6989 217.243 64.5739C217.603 64.4489 217.978 64.3864 218.368 64.3864C219.08 64.3864 219.714 64.5568 220.271 64.8977C220.832 65.2348 221.271 65.697 221.589 66.2841C221.911 66.8712 222.072 67.5417 222.072 68.2955C222.072 69.0379 221.906 69.7008 221.572 70.2841C221.243 70.8636 220.788 71.322 220.209 71.6591C219.629 71.9924 218.97 72.1591 218.232 72.1591ZM227.966 72.1591C227.299 72.1591 226.699 72.0265 226.165 71.7614C225.631 71.4962 225.203 71.1326 224.881 70.6705C224.559 70.2083 224.383 69.6818 224.352 69.0909H225.716C225.769 69.6174 226.008 70.053 226.432 70.3977C226.86 70.7386 227.371 70.9091 227.966 70.9091C228.443 70.9091 228.867 70.7973 229.239 70.5739C229.614 70.3504 229.907 70.0436 230.119 69.6534C230.335 69.2595 230.443 68.8144 230.443 68.3182C230.443 67.8106 230.331 67.358 230.108 66.9602C229.888 66.5587 229.585 66.2424 229.199 66.0114C228.813 65.7803 228.371 65.6629 227.875 65.6591C227.519 65.6553 227.153 65.7102 226.778 65.8239C226.403 65.9337 226.095 66.0758 225.852 66.25L224.534 66.0909L225.239 60.3636H231.284V61.6136H226.42L226.011 65.0455H226.08C226.318 64.8561 226.617 64.6989 226.977 64.5739C227.337 64.4489 227.712 64.3864 228.102 64.3864C228.814 64.3864 229.449 64.5568 230.006 64.8977C230.566 65.2348 231.006 65.697 231.324 66.2841C231.646 66.8712 231.807 67.5417 231.807 68.2955C231.807 69.0379 231.64 69.7008 231.307 70.2841C230.977 70.8636 230.523 71.322 229.943 71.6591C229.364 71.9924 228.705 72.1591 227.966 72.1591Z" fill="#1400FF"/>
<path d="M203.341 143.818L199.591 157.75H198.364L202.114 143.818H203.341ZM204.908 156V154.977L208.749 150.773C209.199 150.28 209.571 149.852 209.862 149.489C210.154 149.121 210.37 148.777 210.51 148.455C210.654 148.129 210.726 147.788 210.726 147.432C210.726 147.023 210.627 146.669 210.43 146.369C210.237 146.07 209.972 145.839 209.635 145.676C209.298 145.513 208.919 145.432 208.499 145.432C208.052 145.432 207.661 145.525 207.328 145.71C206.999 145.892 206.743 146.148 206.561 146.477C206.383 146.807 206.294 147.193 206.294 147.636H204.953C204.953 146.955 205.11 146.356 205.425 145.841C205.739 145.326 206.167 144.924 206.709 144.636C207.254 144.348 207.866 144.205 208.544 144.205C209.226 144.205 209.83 144.348 210.357 144.636C210.883 144.924 211.296 145.312 211.595 145.801C211.894 146.29 212.044 146.833 212.044 147.432C212.044 147.86 211.966 148.278 211.811 148.688C211.66 149.093 211.394 149.545 211.016 150.045C210.641 150.542 210.12 151.148 209.453 151.864L206.839 154.659V154.75H212.249V156H204.908ZM218.232 156.159C217.565 156.159 216.964 156.027 216.43 155.761C215.896 155.496 215.468 155.133 215.146 154.67C214.824 154.208 214.648 153.682 214.618 153.091H215.982C216.035 153.617 216.273 154.053 216.697 154.398C217.125 154.739 217.637 154.909 218.232 154.909C218.709 154.909 219.133 154.797 219.504 154.574C219.879 154.35 220.173 154.044 220.385 153.653C220.601 153.259 220.709 152.814 220.709 152.318C220.709 151.811 220.597 151.358 220.374 150.96C220.154 150.559 219.851 150.242 219.464 150.011C219.078 149.78 218.637 149.663 218.141 149.659C217.785 149.655 217.419 149.71 217.044 149.824C216.669 149.934 216.36 150.076 216.118 150.25L214.8 150.091L215.504 144.364H221.55V145.614H216.686L216.277 149.045H216.345C216.584 148.856 216.883 148.699 217.243 148.574C217.603 148.449 217.978 148.386 218.368 148.386C219.08 148.386 219.714 148.557 220.271 148.898C220.832 149.235 221.271 149.697 221.589 150.284C221.911 150.871 222.072 151.542 222.072 152.295C222.072 153.038 221.906 153.701 221.572 154.284C221.243 154.864 220.788 155.322 220.209 155.659C219.629 155.992 218.97 156.159 218.232 156.159ZM227.966 156.159C227.299 156.159 226.699 156.027 226.165 155.761C225.631 155.496 225.203 155.133 224.881 154.67C224.559 154.208 224.383 153.682 224.352 153.091H225.716C225.769 153.617 226.008 154.053 226.432 154.398C226.86 154.739 227.371 154.909 227.966 154.909C228.443 154.909 228.867 154.797 229.239 154.574C229.614 154.35 229.907 154.044 230.119 153.653C230.335 153.259 230.443 152.814 230.443 152.318C230.443 151.811 230.331 151.358 230.108 150.96C229.888 150.559 229.585 150.242 229.199 150.011C228.813 149.78 228.371 149.663 227.875 149.659C227.519 149.655 227.153 149.71 226.778 149.824C226.403 149.934 226.095 150.076 225.852 150.25L224.534 150.091L225.239 144.364H231.284V145.614H226.42L226.011 149.045H226.08C226.318 148.856 226.617 148.699 226.977 148.574C227.337 148.449 227.712 148.386 228.102 148.386C228.814 148.386 229.449 148.557 230.006 148.898C230.566 149.235 231.006 149.697 231.324 150.284C231.646 150.871 231.807 151.542 231.807 152.295C231.807 153.038 231.64 153.701 231.307 154.284C230.977 154.864 230.523 155.322 229.943 155.659C229.364 155.992 228.705 156.159 227.966 156.159Z" fill="#1400FF"/>
<path d="M203.341 282.818L199.591 296.75H198.364L202.114 282.818H203.341ZM204.908 295V293.977L208.749 289.773C209.199 289.28 209.571 288.852 209.862 288.489C210.154 288.121 210.37 287.777 210.51 287.455C210.654 287.129 210.726 286.788 210.726 286.432C210.726 286.023 210.627 285.669 210.43 285.369C210.237 285.07 209.972 284.839 209.635 284.676C209.298 284.513 208.919 284.432 208.499 284.432C208.052 284.432 207.661 284.525 207.328 284.71C206.999 284.892 206.743 285.148 206.561 285.477C206.383 285.807 206.294 286.193 206.294 286.636H204.953C204.953 285.955 205.11 285.356 205.425 284.841C205.739 284.326 206.167 283.924 206.709 283.636C207.254 283.348 207.866 283.205 208.544 283.205C209.226 283.205 209.83 283.348 210.357 283.636C210.883 283.924 211.296 284.312 211.595 284.801C211.894 285.29 212.044 285.833 212.044 286.432C212.044 286.86 211.966 287.278 211.811 287.688C211.66 288.093 211.394 288.545 211.016 289.045C210.641 289.542 210.12 290.148 209.453 290.864L206.839 293.659V293.75H212.249V295H204.908ZM218.232 295.159C217.565 295.159 216.964 295.027 216.43 294.761C215.896 294.496 215.468 294.133 215.146 293.67C214.824 293.208 214.648 292.682 214.618 292.091H215.982C216.035 292.617 216.273 293.053 216.697 293.398C217.125 293.739 217.637 293.909 218.232 293.909C218.709 293.909 219.133 293.797 219.504 293.574C219.879 293.35 220.173 293.044 220.385 292.653C220.601 292.259 220.709 291.814 220.709 291.318C220.709 290.811 220.597 290.358 220.374 289.96C220.154 289.559 219.851 289.242 219.464 289.011C219.078 288.78 218.637 288.663 218.141 288.659C217.785 288.655 217.419 288.71 217.044 288.824C216.669 288.934 216.36 289.076 216.118 289.25L214.8 289.091L215.504 283.364H221.55V284.614H216.686L216.277 288.045H216.345C216.584 287.856 216.883 287.699 217.243 287.574C217.603 287.449 217.978 287.386 218.368 287.386C219.08 287.386 219.714 287.557 220.271 287.898C220.832 288.235 221.271 288.697 221.589 289.284C221.911 289.871 222.072 290.542 222.072 291.295C222.072 292.038 221.906 292.701 221.572 293.284C221.243 293.864 220.788 294.322 220.209 294.659C219.629 294.992 218.97 295.159 218.232 295.159ZM227.966 295.159C227.299 295.159 226.699 295.027 226.165 294.761C225.631 294.496 225.203 294.133 224.881 293.67C224.559 293.208 224.383 292.682 224.352 292.091H225.716C225.769 292.617 226.008 293.053 226.432 293.398C226.86 293.739 227.371 293.909 227.966 293.909C228.443 293.909 228.867 293.797 229.239 293.574C229.614 293.35 229.907 293.044 230.119 292.653C230.335 292.259 230.443 291.814 230.443 291.318C230.443 290.811 230.331 290.358 230.108 289.96C229.888 289.559 229.585 289.242 229.199 289.011C228.813 288.78 228.371 288.663 227.875 288.659C227.519 288.655 227.153 288.71 226.778 288.824C226.403 288.934 226.095 289.076 225.852 289.25L224.534 289.091L225.239 283.364H231.284V284.614H226.42L226.011 288.045H226.08C226.318 287.856 226.617 287.699 226.977 287.574C227.337 287.449 227.712 287.386 228.102 287.386C228.814 287.386 229.449 287.557 230.006 287.898C230.566 288.235 231.006 288.697 231.324 289.284C231.646 289.871 231.807 290.542 231.807 291.295C231.807 292.038 231.64 292.701 231.307 293.284C230.977 293.864 230.523 294.322 229.943 294.659C229.364 294.992 228.705 295.159 227.966 295.159Z" fill="#1400FF"/>
<path d="M203.341 352.818L199.591 366.75H198.364L202.114 352.818H203.341ZM204.908 365V363.977L208.749 359.773C209.199 359.28 209.571 358.852 209.862 358.489C210.154 358.121 210.37 357.777 210.51 357.455C210.654 357.129 210.726 356.788 210.726 356.432C210.726 356.023 210.627 355.669 210.43 355.369C210.237 355.07 209.972 354.839 209.635 354.676C209.298 354.513 208.919 354.432 208.499 354.432C208.052 354.432 207.661 354.525 207.328 354.71C206.999 354.892 206.743 355.148 206.561 355.477C206.383 355.807 206.294 356.193 206.294 356.636H204.953C204.953 355.955 205.11 355.356 205.425 354.841C205.739 354.326 206.167 353.924 206.709 353.636C207.254 353.348 207.866 353.205 208.544 353.205C209.226 353.205 209.83 353.348 210.357 353.636C210.883 353.924 211.296 354.312 211.595 354.801C211.894 355.29 212.044 355.833 212.044 356.432C212.044 356.86 211.966 357.278 211.811 357.688C211.66 358.093 211.394 358.545 211.016 359.045C210.641 359.542 210.12 360.148 209.453 360.864L206.839 363.659V363.75H212.249V365H204.908ZM218.232 365.159C217.565 365.159 216.964 365.027 216.43 364.761C215.896 364.496 215.468 364.133 215.146 363.67C214.824 363.208 214.648 362.682 214.618 362.091H215.982C216.035 362.617 216.273 363.053 216.697 363.398C217.125 363.739 217.637 363.909 218.232 363.909C218.709 363.909 219.133 363.797 219.504 363.574C219.879 363.35 220.173 363.044 220.385 362.653C220.601 362.259 220.709 361.814 220.709 361.318C220.709 360.811 220.597 360.358 220.374 359.96C220.154 359.559 219.851 359.242 219.464 359.011C219.078 358.78 218.637 358.663 218.141 358.659C217.785 358.655 217.419 358.71 217.044 358.824C216.669 358.934 216.36 359.076 216.118 359.25L214.8 359.091L215.504 353.364H221.55V354.614H216.686L216.277 358.045H216.345C216.584 357.856 216.883 357.699 217.243 357.574C217.603 357.449 217.978 357.386 218.368 357.386C219.08 357.386 219.714 357.557 220.271 357.898C220.832 358.235 221.271 358.697 221.589 359.284C221.911 359.871 222.072 360.542 222.072 361.295C222.072 362.038 221.906 362.701 221.572 363.284C221.243 363.864 220.788 364.322 220.209 364.659C219.629 364.992 218.97 365.159 218.232 365.159ZM227.966 365.159C227.299 365.159 226.699 365.027 226.165 364.761C225.631 364.496 225.203 364.133 224.881 363.67C224.559 363.208 224.383 362.682 224.352 362.091H225.716C225.769 362.617 226.008 363.053 226.432 363.398C226.86 363.739 227.371 363.909 227.966 363.909C228.443 363.909 228.867 363.797 229.239 363.574C229.614 363.35 229.907 363.044 230.119 362.653C230.335 362.259 230.443 361.814 230.443 361.318C230.443 360.811 230.331 360.358 230.108 359.96C229.888 359.559 229.585 359.242 229.199 359.011C228.813 358.78 228.371 358.663 227.875 358.659C227.519 358.655 227.153 358.71 226.778 358.824C226.403 358.934 226.095 359.076 225.852 359.25L224.534 359.091L225.239 353.364H231.284V354.614H226.42L226.011 358.045H226.08C226.318 357.856 226.617 357.699 226.977 357.574C227.337 357.449 227.712 357.386 228.102 357.386C228.814 357.386 229.449 357.557 230.006 357.898C230.566 358.235 231.006 358.697 231.324 359.284C231.646 359.871 231.807 360.542 231.807 361.295C231.807 362.038 231.64 362.701 231.307 363.284C230.977 363.864 230.523 364.322 229.943 364.659C229.364 364.992 228.705 365.159 227.966 365.159Z" fill="#1400FF"/>
<path d="M301.091 81.3636L304.091 86.2045H304.182L307.182 81.3636H308.841L305.182 87.1818L308.841 93H307.182L304.182 88.25H304.091L301.091 93H299.432L303.182 87.1818L299.432 81.3636H301.091ZM312.788 95.1364C311.879 95.1364 311.167 94.8144 310.652 94.1705C310.137 93.5303 309.879 92.6477 309.879 91.5227C309.879 90.3977 310.137 89.5189 310.652 88.8864C311.167 88.25 311.879 87.9318 312.788 87.9318C313.686 87.9318 314.394 88.2462 314.913 88.875C315.436 89.5038 315.697 90.3864 315.697 91.5227C315.697 92.6591 315.436 93.5455 314.913 94.1818C314.394 94.8182 313.686 95.1364 312.788 95.1364ZM312.788 94.1136C313.288 94.1136 313.69 93.8939 313.993 93.4545C314.296 93.0189 314.447 92.375 314.447 91.5227C314.447 90.6705 314.296 90.0265 313.993 89.5909C313.69 89.1515 313.288 88.9318 312.788 88.9318C312.288 88.9318 311.887 89.1515 311.584 89.5909C311.281 90.0265 311.129 90.6705 311.129 91.5227C311.129 92.3636 311.277 93.0057 311.572 93.4489C311.872 93.892 312.277 94.1136 312.788 94.1136ZM317.381 84.0227C317.381 83.1023 317.498 82.2462 317.733 81.4545C317.972 80.6591 318.324 79.9091 318.79 79.2045H319.949C319.691 79.5909 319.462 80.0492 319.261 80.5795C319.064 81.1098 318.909 81.6723 318.795 82.267C318.686 82.8617 318.631 83.447 318.631 84.0227C318.631 84.6288 318.689 85.233 318.807 85.8352C318.928 86.4337 319.087 86.9924 319.284 87.5114C319.485 88.0265 319.706 88.4621 319.949 88.8182H318.79C318.324 88.125 317.972 87.3807 317.733 86.5852C317.498 85.786 317.381 84.9318 317.381 84.0227ZM321.132 87.1818V81.3636H322.337V87.1818H321.132ZM321.746 80.5682C321.553 80.5682 321.386 80.5 321.246 80.3636C321.109 80.2273 321.041 80.0682 321.041 79.8864C321.041 79.7045 321.109 79.5455 321.246 79.4091C321.386 79.2727 321.553 79.2045 321.746 79.2045C321.928 79.2045 322.087 79.2727 322.223 79.4091C322.359 79.5455 322.428 79.7045 322.428 79.8864C322.428 80.0795 322.359 80.2424 322.223 80.375C322.087 80.5038 321.928 80.5682 321.746 80.5682ZM326.43 84.0227C326.43 84.9091 326.315 85.7576 326.084 86.5682C325.853 87.375 325.499 88.125 325.021 88.8182H323.862C324.12 88.4394 324.347 87.9905 324.544 87.4716C324.745 86.9489 324.9 86.392 325.01 85.8011C325.124 85.2064 325.18 84.6136 325.18 84.0227C325.18 83.4318 325.124 82.8409 325.01 82.25C324.9 81.6553 324.745 81.0966 324.544 80.5739C324.347 80.0473 324.12 79.5909 323.862 79.2045H325.021C325.499 79.9091 325.853 80.6667 326.084 81.4773C326.315 82.2879 326.43 83.1364 326.43 84.0227Z" fill="#3300FF"/>
<path d="M301.091 153.364L304.091 158.205H304.182L307.182 153.364H308.841L305.182 159.182L308.841 165H307.182L304.182 160.25H304.091L301.091 165H299.432L303.182 159.182L299.432 153.364H301.091ZM311.754 167V161.261H311.697L309.902 162.455V161.25L311.754 160.023H312.936V167H311.754ZM315.349 156.023C315.349 155.102 315.467 154.246 315.702 153.455C315.94 152.659 316.293 151.909 316.759 151.205H317.918C317.66 151.591 317.431 152.049 317.23 152.58C317.033 153.11 316.878 153.672 316.764 154.267C316.654 154.862 316.599 155.447 316.599 156.023C316.599 156.629 316.658 157.233 316.776 157.835C316.897 158.434 317.056 158.992 317.253 159.511C317.454 160.027 317.675 160.462 317.918 160.818H316.759C316.293 160.125 315.94 159.381 315.702 158.585C315.467 157.786 315.349 156.932 315.349 156.023ZM319.101 159.182V153.364H320.305V159.182H319.101ZM319.714 152.568C319.521 152.568 319.355 152.5 319.214 152.364C319.078 152.227 319.01 152.068 319.01 151.886C319.01 151.705 319.078 151.545 319.214 151.409C319.355 151.273 319.521 151.205 319.714 151.205C319.896 151.205 320.055 151.273 320.192 151.409C320.328 151.545 320.396 151.705 320.396 151.886C320.396 152.08 320.328 152.242 320.192 152.375C320.055 152.504 319.896 152.568 319.714 152.568ZM324.399 156.023C324.399 156.909 324.284 157.758 324.053 158.568C323.821 159.375 323.467 160.125 322.99 160.818H321.831C322.089 160.439 322.316 159.991 322.513 159.472C322.714 158.949 322.869 158.392 322.979 157.801C323.092 157.206 323.149 156.614 323.149 156.023C323.149 155.432 323.092 154.841 322.979 154.25C322.869 153.655 322.714 153.097 322.513 152.574C322.316 152.047 322.089 151.591 321.831 151.205H322.99C323.467 151.909 323.821 152.667 324.053 153.477C324.284 154.288 324.399 155.136 324.399 156.023Z" fill="#3300FF"/>
<path d="M301.091 225.364L304.091 230.205H304.182L307.182 225.364H308.841L305.182 231.182L308.841 237H307.182L304.182 232.25H304.091L301.091 237H299.432L303.182 231.182L299.432 225.364H301.091ZM311.834 231.75V237H310.493V228.273H311.788V229.636H311.902C312.107 229.193 312.417 228.837 312.834 228.568C313.25 228.295 313.788 228.159 314.447 228.159C315.038 228.159 315.555 228.28 315.999 228.523C316.442 228.761 316.786 229.125 317.033 229.614C317.279 230.098 317.402 230.712 317.402 231.455V237H316.061V231.545C316.061 230.86 315.883 230.326 315.527 229.943C315.171 229.557 314.682 229.364 314.061 229.364C313.633 229.364 313.25 229.456 312.913 229.642C312.58 229.828 312.317 230.098 312.124 230.455C311.93 230.811 311.834 231.242 311.834 231.75ZM319.693 228.023C319.693 227.102 319.811 226.246 320.045 225.455C320.284 224.659 320.636 223.909 321.102 223.205H322.261C322.004 223.591 321.775 224.049 321.574 224.58C321.377 225.11 321.222 225.672 321.108 226.267C320.998 226.862 320.943 227.447 320.943 228.023C320.943 228.629 321.002 229.233 321.119 229.835C321.241 230.434 321.4 230.992 321.597 231.511C321.797 232.027 322.019 232.462 322.261 232.818H321.102C320.636 232.125 320.284 231.381 320.045 230.585C319.811 229.786 319.693 228.932 319.693 228.023ZM323.445 231.182V225.364H324.649V231.182H323.445ZM324.058 224.568C323.865 224.568 323.698 224.5 323.558 224.364C323.422 224.227 323.354 224.068 323.354 223.886C323.354 223.705 323.422 223.545 323.558 223.409C323.698 223.273 323.865 223.205 324.058 223.205C324.24 223.205 324.399 223.273 324.536 223.409C324.672 223.545 324.74 223.705 324.74 223.886C324.74 224.08 324.672 224.242 324.536 224.375C324.399 224.504 324.24 224.568 324.058 224.568ZM328.743 228.023C328.743 228.909 328.627 229.758 328.396 230.568C328.165 231.375 327.811 232.125 327.334 232.818H326.175C326.432 232.439 326.66 231.991 326.857 231.472C327.057 230.949 327.213 230.392 327.322 229.801C327.436 229.206 327.493 228.614 327.493 228.023C327.493 227.432 327.436 226.841 327.322 226.25C327.213 225.655 327.057 225.097 326.857 224.574C326.66 224.047 326.432 223.591 326.175 223.205H327.334C327.811 223.909 328.165 224.667 328.396 225.477C328.627 226.288 328.743 227.136 328.743 228.023Z" fill="#3300FF"/>
<path d="M294.091 292.364L297.091 297.205H297.182L300.182 292.364H301.841L298.182 298.182L301.841 304H300.182L297.182 299.25H297.091L294.091 304H292.432L296.182 298.182L292.432 292.364H294.091ZM304.754 306V300.261H304.697L302.902 301.455V300.25L304.754 299.023H305.936V306H304.754ZM308.077 306V305.114L310.736 302.75C311.001 302.515 311.223 302.305 311.401 302.119C311.579 301.934 311.713 301.754 311.804 301.58C311.895 301.405 311.94 301.22 311.94 301.023C311.94 300.682 311.81 300.411 311.548 300.21C311.287 300.009 310.963 299.909 310.577 299.909C310.168 299.909 309.838 300.019 309.588 300.239C309.338 300.455 309.213 300.739 309.213 301.091H308.031C308.031 300.443 308.272 299.922 308.753 299.528C309.234 299.131 309.849 298.932 310.599 298.932C311.099 298.932 311.539 299.023 311.918 299.205C312.296 299.383 312.592 299.629 312.804 299.943C313.016 300.254 313.122 300.606 313.122 301C313.122 301.311 313.06 301.598 312.935 301.864C312.81 302.129 312.615 302.403 312.349 302.688C312.084 302.972 311.743 303.295 311.327 303.659L309.849 304.955V305H313.327V306H308.077ZM314.811 306V305.114L317.47 302.75C317.735 302.515 317.957 302.305 318.135 302.119C318.313 301.934 318.447 301.754 318.538 301.58C318.629 301.405 318.675 301.22 318.675 301.023C318.675 300.682 318.544 300.411 318.283 300.21C318.021 300.009 317.697 299.909 317.311 299.909C316.902 299.909 316.572 300.019 316.322 300.239C316.072 300.455 315.947 300.739 315.947 301.091H314.766C314.766 300.443 315.006 299.922 315.487 299.528C315.968 299.131 316.584 298.932 317.334 298.932C317.834 298.932 318.273 299.023 318.652 299.205C319.031 299.383 319.326 299.629 319.538 299.943C319.75 300.254 319.857 300.606 319.857 301C319.857 301.311 319.794 301.598 319.669 301.864C319.544 302.129 319.349 302.403 319.084 302.688C318.819 302.972 318.478 303.295 318.061 303.659L316.584 304.955V305H320.061V306H314.811ZM324.159 306.091C323.621 306.091 323.14 306.006 322.716 305.835C322.292 305.665 321.956 305.432 321.71 305.136C321.464 304.841 321.341 304.508 321.341 304.136C321.341 303.75 321.489 303.386 321.784 303.045C322.083 302.701 322.489 302.489 323 302.409V302.364C322.591 302.273 322.258 302.081 322 301.79C321.742 301.498 321.614 301.159 321.614 300.773C321.614 300.424 321.723 300.112 321.943 299.835C322.167 299.555 322.47 299.335 322.852 299.176C323.239 299.013 323.674 298.932 324.159 298.932C324.644 298.932 325.078 299.013 325.46 299.176C325.847 299.335 326.15 299.555 326.369 299.835C326.593 300.112 326.705 300.424 326.705 300.773C326.705 301.159 326.576 301.498 326.318 301.79C326.064 302.081 325.739 302.273 325.341 302.364V302.409C325.807 302.477 326.199 302.68 326.517 303.017C326.839 303.354 327 303.727 327 304.136C327 304.508 326.875 304.841 326.625 305.136C326.375 305.432 326.036 305.665 325.608 305.835C325.18 306.006 324.697 306.091 324.159 306.091ZM324.159 305.205C324.455 305.205 324.72 305.153 324.955 305.051C325.193 304.949 325.381 304.811 325.517 304.636C325.657 304.462 325.727 304.265 325.727 304.045C325.727 303.826 325.657 303.627 325.517 303.449C325.381 303.271 325.193 303.129 324.955 303.023C324.72 302.917 324.455 302.864 324.159 302.864C323.864 302.864 323.598 302.917 323.364 303.023C323.133 303.129 322.949 303.271 322.812 303.449C322.68 303.627 322.614 303.826 322.614 304.045C322.614 304.364 322.758 304.636 323.045 304.864C323.333 305.091 323.705 305.205 324.159 305.205ZM324.159 301.977C324.417 301.977 324.646 301.93 324.847 301.835C325.051 301.737 325.21 301.608 325.324 301.449C325.441 301.286 325.5 301.106 325.5 300.909C325.5 300.602 325.373 300.348 325.119 300.148C324.866 299.943 324.545 299.841 324.159 299.841C323.909 299.841 323.682 299.888 323.477 299.983C323.277 300.074 323.116 300.201 322.994 300.364C322.877 300.523 322.818 300.705 322.818 300.909C322.818 301.216 322.951 301.472 323.216 301.676C323.481 301.877 323.795 301.977 324.159 301.977ZM331.071 306.091C330.696 306.091 330.336 306.028 329.991 305.903C329.651 305.778 329.346 305.58 329.077 305.307C328.808 305.038 328.596 304.688 328.44 304.256C328.285 303.828 328.207 303.311 328.207 302.705C328.207 301.962 328.321 301.307 328.548 300.739C328.776 300.167 329.107 299.72 329.543 299.398C329.978 299.072 330.51 298.909 331.139 298.909C331.878 298.909 332.469 299.112 332.912 299.517C333.355 299.919 333.605 300.398 333.662 300.955H332.457C332.401 300.648 332.255 300.409 332.02 300.239C331.785 300.064 331.491 299.977 331.139 299.977C330.571 299.977 330.141 300.206 329.849 300.665C329.558 301.123 329.412 301.75 329.412 302.545H329.457C329.628 302.216 329.891 301.96 330.247 301.778C330.603 301.593 330.991 301.5 331.412 301.5C331.851 301.5 332.247 301.597 332.599 301.79C332.955 301.979 333.236 302.241 333.44 302.574C333.649 302.903 333.753 303.28 333.753 303.705C333.753 304.167 333.639 304.578 333.412 304.938C333.188 305.297 332.874 305.58 332.469 305.784C332.067 305.989 331.601 306.091 331.071 306.091ZM331.071 305.136C331.351 305.136 331.605 305.074 331.832 304.949C332.06 304.828 332.24 304.661 332.372 304.449C332.505 304.241 332.571 304.008 332.571 303.75C332.571 303.492 332.505 303.261 332.372 303.057C332.24 302.848 332.06 302.686 331.832 302.568C331.605 302.447 331.351 302.386 331.071 302.386C330.776 302.386 330.51 302.449 330.276 302.574C330.041 302.695 329.859 302.866 329.73 303.085C329.601 303.301 329.548 303.553 329.571 303.841C329.594 304.182 329.741 304.483 330.014 304.744C330.287 305.006 330.639 305.136 331.071 305.136ZM335.459 295.023C335.459 294.102 335.576 293.246 335.811 292.455C336.05 291.659 336.402 290.909 336.868 290.205H338.027C337.769 290.591 337.54 291.049 337.339 291.58C337.143 292.11 336.987 292.672 336.874 293.267C336.764 293.862 336.709 294.447 336.709 295.023C336.709 295.629 336.768 296.233 336.885 296.835C337.006 297.434 337.165 297.992 337.362 298.511C337.563 299.027 337.785 299.462 338.027 299.818H336.868C336.402 299.125 336.05 298.381 335.811 297.585C335.576 296.786 335.459 295.932 335.459 295.023ZM339.21 298.182V292.364H340.415V298.182H339.21ZM339.824 291.568C339.631 291.568 339.464 291.5 339.324 291.364C339.188 291.227 339.119 291.068 339.119 290.886C339.119 290.705 339.188 290.545 339.324 290.409C339.464 290.273 339.631 290.205 339.824 290.205C340.006 290.205 340.165 290.273 340.301 290.409C340.438 290.545 340.506 290.705 340.506 290.886C340.506 291.08 340.438 291.242 340.301 291.375C340.165 291.504 340.006 291.568 339.824 291.568ZM344.509 295.023C344.509 295.909 344.393 296.758 344.162 297.568C343.931 298.375 343.577 299.125 343.099 299.818H341.94C342.198 299.439 342.425 298.991 342.622 298.472C342.823 297.949 342.978 297.392 343.088 296.801C343.202 296.206 343.259 295.614 343.259 295.023C343.259 294.432 343.202 293.841 343.088 293.25C342.978 292.655 342.823 292.097 342.622 291.574C342.425 291.047 342.198 290.591 341.94 290.205H343.099C343.577 290.909 343.931 291.667 344.162 292.477C344.393 293.288 344.509 294.136 344.509 295.023Z" fill="#3300FF"/>
<path d="M295.091 365.364L298.091 370.205H298.182L301.182 365.364H302.841L299.182 371.182L302.841 377H301.182L298.182 372.25H298.091L295.091 377H293.432L297.182 371.182L293.432 365.364H295.091ZM305.754 379V373.261H305.697L303.902 374.455V373.25L305.754 372.023H306.936V379H305.754ZM309.077 379V378.114L311.736 375.75C312.001 375.515 312.223 375.305 312.401 375.119C312.579 374.934 312.713 374.754 312.804 374.58C312.895 374.405 312.94 374.22 312.94 374.023C312.94 373.682 312.81 373.411 312.548 373.21C312.287 373.009 311.963 372.909 311.577 372.909C311.168 372.909 310.838 373.019 310.588 373.239C310.338 373.455 310.213 373.739 310.213 374.091H309.031C309.031 373.443 309.272 372.922 309.753 372.528C310.234 372.131 310.849 371.932 311.599 371.932C312.099 371.932 312.539 372.023 312.918 372.205C313.296 372.383 313.592 372.629 313.804 372.943C314.016 373.254 314.122 373.606 314.122 374C314.122 374.311 314.06 374.598 313.935 374.864C313.81 375.129 313.615 375.403 313.349 375.688C313.084 375.972 312.743 376.295 312.327 376.659L310.849 377.955V378H314.327V379H309.077ZM315.811 379V378.114L318.47 375.75C318.735 375.515 318.957 375.305 319.135 375.119C319.313 374.934 319.447 374.754 319.538 374.58C319.629 374.405 319.675 374.22 319.675 374.023C319.675 373.682 319.544 373.411 319.283 373.21C319.021 373.009 318.697 372.909 318.311 372.909C317.902 372.909 317.572 373.019 317.322 373.239C317.072 373.455 316.947 373.739 316.947 374.091H315.766C315.766 373.443 316.006 372.922 316.487 372.528C316.968 372.131 317.584 371.932 318.334 371.932C318.834 371.932 319.273 372.023 319.652 372.205C320.031 372.383 320.326 372.629 320.538 372.943C320.75 373.254 320.857 373.606 320.857 374C320.857 374.311 320.794 374.598 320.669 374.864C320.544 375.129 320.349 375.403 320.084 375.688C319.819 375.972 319.478 376.295 319.061 376.659L317.584 377.955V378H321.061V379H315.811ZM325.159 379.091C324.621 379.091 324.14 379.006 323.716 378.835C323.292 378.665 322.956 378.432 322.71 378.136C322.464 377.841 322.341 377.508 322.341 377.136C322.341 376.75 322.489 376.386 322.784 376.045C323.083 375.701 323.489 375.489 324 375.409V375.364C323.591 375.273 323.258 375.081 323 374.79C322.742 374.498 322.614 374.159 322.614 373.773C322.614 373.424 322.723 373.112 322.943 372.835C323.167 372.555 323.47 372.335 323.852 372.176C324.239 372.013 324.674 371.932 325.159 371.932C325.644 371.932 326.078 372.013 326.46 372.176C326.847 372.335 327.15 372.555 327.369 372.835C327.593 373.112 327.705 373.424 327.705 373.773C327.705 374.159 327.576 374.498 327.318 374.79C327.064 375.081 326.739 375.273 326.341 375.364V375.409C326.807 375.477 327.199 375.68 327.517 376.017C327.839 376.354 328 376.727 328 377.136C328 377.508 327.875 377.841 327.625 378.136C327.375 378.432 327.036 378.665 326.608 378.835C326.18 379.006 325.697 379.091 325.159 379.091ZM325.159 378.205C325.455 378.205 325.72 378.153 325.955 378.051C326.193 377.949 326.381 377.811 326.517 377.636C326.657 377.462 326.727 377.265 326.727 377.045C326.727 376.826 326.657 376.627 326.517 376.449C326.381 376.271 326.193 376.129 325.955 376.023C325.72 375.917 325.455 375.864 325.159 375.864C324.864 375.864 324.598 375.917 324.364 376.023C324.133 376.129 323.949 376.271 323.812 376.449C323.68 376.627 323.614 376.826 323.614 377.045C323.614 377.364 323.758 377.636 324.045 377.864C324.333 378.091 324.705 378.205 325.159 378.205ZM325.159 374.977C325.417 374.977 325.646 374.93 325.847 374.835C326.051 374.737 326.21 374.608 326.324 374.449C326.441 374.286 326.5 374.106 326.5 373.909C326.5 373.602 326.373 373.348 326.119 373.148C325.866 372.943 325.545 372.841 325.159 372.841C324.909 372.841 324.682 372.888 324.477 372.983C324.277 373.074 324.116 373.201 323.994 373.364C323.877 373.523 323.818 373.705 323.818 373.909C323.818 374.216 323.951 374.472 324.216 374.676C324.481 374.877 324.795 374.977 325.159 374.977ZM329.594 379L332.957 373.068V373.023H329.071V372.023H334.23V373.045L330.889 379H329.594ZM335.865 368.023C335.865 367.102 335.982 366.246 336.217 365.455C336.456 364.659 336.808 363.909 337.274 363.205H338.433C338.176 363.591 337.946 364.049 337.746 364.58C337.549 365.11 337.393 365.672 337.28 366.267C337.17 366.862 337.115 367.447 337.115 368.023C337.115 368.629 337.174 369.233 337.291 369.835C337.412 370.434 337.571 370.992 337.768 371.511C337.969 372.027 338.191 372.462 338.433 372.818H337.274C336.808 372.125 336.456 371.381 336.217 370.585C335.982 369.786 335.865 368.932 335.865 368.023ZM339.616 371.182V365.364H340.821V371.182H339.616ZM340.23 364.568C340.037 364.568 339.87 364.5 339.73 364.364C339.594 364.227 339.526 364.068 339.526 363.886C339.526 363.705 339.594 363.545 339.73 363.409C339.87 363.273 340.037 363.205 340.23 363.205C340.412 363.205 340.571 363.273 340.707 363.409C340.844 363.545 340.912 363.705 340.912 363.886C340.912 364.08 340.844 364.242 340.707 364.375C340.571 364.504 340.412 364.568 340.23 364.568ZM344.915 368.023C344.915 368.909 344.799 369.758 344.568 370.568C344.337 371.375 343.983 372.125 343.506 372.818H342.347C342.604 372.439 342.831 371.991 343.028 371.472C343.229 370.949 343.384 370.392 343.494 369.801C343.608 369.206 343.665 368.614 343.665 368.023C343.665 367.432 343.608 366.841 343.494 366.25C343.384 365.655 343.229 365.097 343.028 364.574C342.831 364.047 342.604 363.591 342.347 363.205H343.506C343.983 363.909 344.337 364.667 344.568 365.477C344.799 366.288 344.915 367.136 344.915 368.023Z" fill="#3300FF"/>
<path d="M229.773 464.273C229.705 463.697 229.428 463.25 228.943 462.932C228.458 462.614 227.864 462.455 227.159 462.455C226.644 462.455 226.193 462.538 225.807 462.705C225.424 462.871 225.125 463.1 224.909 463.392C224.697 463.684 224.591 464.015 224.591 464.386C224.591 464.697 224.665 464.964 224.812 465.188C224.964 465.407 225.157 465.591 225.392 465.739C225.627 465.883 225.873 466.002 226.131 466.097C226.388 466.187 226.625 466.261 226.841 466.318L228.023 466.636C228.326 466.716 228.663 466.826 229.034 466.966C229.409 467.106 229.767 467.297 230.108 467.54C230.453 467.778 230.737 468.085 230.96 468.46C231.184 468.835 231.295 469.295 231.295 469.841C231.295 470.47 231.131 471.038 230.801 471.545C230.475 472.053 229.998 472.456 229.369 472.756C228.744 473.055 227.985 473.205 227.091 473.205C226.258 473.205 225.536 473.07 224.926 472.801C224.32 472.532 223.843 472.157 223.494 471.676C223.15 471.195 222.955 470.636 222.909 470H224.364C224.402 470.439 224.549 470.803 224.807 471.091C225.068 471.375 225.398 471.587 225.795 471.727C226.197 471.864 226.629 471.932 227.091 471.932C227.629 471.932 228.112 471.845 228.54 471.67C228.968 471.492 229.307 471.246 229.557 470.932C229.807 470.614 229.932 470.242 229.932 469.818C229.932 469.432 229.824 469.117 229.608 468.875C229.392 468.633 229.108 468.436 228.756 468.284C228.403 468.133 228.023 468 227.614 467.886L226.182 467.477C225.273 467.216 224.553 466.843 224.023 466.358C223.492 465.873 223.227 465.239 223.227 464.455C223.227 463.803 223.403 463.235 223.756 462.75C224.112 462.261 224.589 461.883 225.188 461.614C225.79 461.341 226.462 461.205 227.205 461.205C227.955 461.205 228.621 461.339 229.205 461.608C229.788 461.873 230.25 462.237 230.591 462.699C230.936 463.161 231.117 463.686 231.136 464.273H229.773ZM237.226 464.273V465.409H232.703V464.273H237.226ZM234.021 462.182H235.362V470.5C235.362 470.879 235.417 471.163 235.527 471.352C235.641 471.538 235.785 471.663 235.959 471.727C236.137 471.788 236.324 471.818 236.521 471.818C236.669 471.818 236.79 471.811 236.885 471.795C236.98 471.777 237.055 471.761 237.112 471.75L237.385 472.955C237.294 472.989 237.167 473.023 237.004 473.057C236.841 473.095 236.635 473.114 236.385 473.114C236.006 473.114 235.635 473.032 235.271 472.869C234.911 472.706 234.612 472.458 234.374 472.125C234.139 471.792 234.021 471.371 234.021 470.864V462.182ZM241.811 473.205C241.258 473.205 240.756 473.1 240.305 472.892C239.855 472.68 239.497 472.375 239.232 471.977C238.966 471.576 238.834 471.091 238.834 470.523C238.834 470.023 238.932 469.617 239.129 469.307C239.326 468.992 239.589 468.746 239.919 468.568C240.249 468.39 240.612 468.258 241.01 468.17C241.411 468.08 241.815 468.008 242.22 467.955C242.75 467.886 243.18 467.835 243.51 467.801C243.843 467.763 244.086 467.701 244.237 467.614C244.393 467.527 244.47 467.375 244.47 467.159V467.114C244.47 466.553 244.317 466.117 244.01 465.807C243.707 465.496 243.247 465.341 242.629 465.341C241.989 465.341 241.487 465.481 241.124 465.761C240.76 466.042 240.504 466.341 240.357 466.659L239.084 466.205C239.311 465.674 239.614 465.261 239.993 464.966C240.375 464.667 240.792 464.458 241.243 464.341C241.697 464.22 242.144 464.159 242.584 464.159C242.864 464.159 243.186 464.193 243.55 464.261C243.917 464.326 244.271 464.46 244.612 464.665C244.957 464.869 245.243 465.178 245.47 465.591C245.697 466.004 245.811 466.557 245.811 467.25V473H244.47V471.818H244.402C244.311 472.008 244.16 472.21 243.947 472.426C243.735 472.642 243.453 472.826 243.101 472.977C242.749 473.129 242.319 473.205 241.811 473.205ZM242.016 472C242.546 472 242.993 471.896 243.357 471.688C243.724 471.479 244 471.21 244.186 470.881C244.375 470.551 244.47 470.205 244.47 469.841V468.614C244.413 468.682 244.288 468.744 244.095 468.801C243.906 468.854 243.686 468.902 243.436 468.943C243.19 468.981 242.949 469.015 242.714 469.045C242.483 469.072 242.296 469.095 242.152 469.114C241.804 469.159 241.478 469.233 241.175 469.335C240.875 469.434 240.633 469.583 240.447 469.784C240.266 469.981 240.175 470.25 240.175 470.591C240.175 471.057 240.347 471.409 240.692 471.648C241.04 471.883 241.482 472 242.016 472ZM249.599 467.75V473H248.259V464.273H249.554V465.636H249.668C249.872 465.193 250.183 464.837 250.599 464.568C251.016 464.295 251.554 464.159 252.213 464.159C252.804 464.159 253.321 464.28 253.764 464.523C254.207 464.761 254.552 465.125 254.798 465.614C255.045 466.098 255.168 466.712 255.168 467.455V473H253.827V467.545C253.827 466.86 253.649 466.326 253.293 465.943C252.937 465.557 252.448 465.364 251.827 465.364C251.399 465.364 251.016 465.456 250.679 465.642C250.346 465.828 250.082 466.098 249.889 466.455C249.696 466.811 249.599 467.242 249.599 467.75ZM260.913 473.182C260.186 473.182 259.544 472.998 258.987 472.631C258.43 472.259 257.995 471.737 257.68 471.062C257.366 470.384 257.209 469.583 257.209 468.659C257.209 467.742 257.366 466.947 257.68 466.273C257.995 465.598 258.432 465.078 258.993 464.71C259.554 464.343 260.201 464.159 260.936 464.159C261.504 464.159 261.953 464.254 262.283 464.443C262.616 464.629 262.87 464.841 263.044 465.08C263.222 465.314 263.36 465.508 263.459 465.659H263.572V461.364H264.913V473H263.618V471.659H263.459C263.36 471.818 263.22 472.019 263.038 472.261C262.857 472.5 262.597 472.714 262.26 472.903C261.923 473.089 261.474 473.182 260.913 473.182ZM261.095 471.977C261.633 471.977 262.088 471.837 262.459 471.557C262.83 471.273 263.112 470.881 263.305 470.381C263.499 469.877 263.595 469.295 263.595 468.636C263.595 467.985 263.5 467.415 263.311 466.926C263.122 466.434 262.841 466.051 262.47 465.778C262.099 465.502 261.641 465.364 261.095 465.364C260.527 465.364 260.054 465.509 259.675 465.801C259.3 466.089 259.018 466.481 258.828 466.977C258.643 467.47 258.55 468.023 258.55 468.636C258.55 469.258 258.644 469.822 258.834 470.33C259.027 470.833 259.311 471.235 259.686 471.534C260.065 471.83 260.535 471.977 261.095 471.977ZM270.124 473.205C269.571 473.205 269.069 473.1 268.618 472.892C268.167 472.68 267.809 472.375 267.544 471.977C267.279 471.576 267.146 471.091 267.146 470.523C267.146 470.023 267.245 469.617 267.442 469.307C267.639 468.992 267.902 468.746 268.232 468.568C268.561 468.39 268.925 468.258 269.322 468.17C269.724 468.08 270.127 468.008 270.533 467.955C271.063 467.886 271.493 467.835 271.822 467.801C272.156 467.763 272.398 467.701 272.55 467.614C272.705 467.527 272.783 467.375 272.783 467.159V467.114C272.783 466.553 272.629 466.117 272.322 465.807C272.019 465.496 271.559 465.341 270.942 465.341C270.302 465.341 269.8 465.481 269.436 465.761C269.072 466.042 268.817 466.341 268.669 466.659L267.396 466.205C267.624 465.674 267.927 465.261 268.305 464.966C268.688 464.667 269.105 464.458 269.555 464.341C270.01 464.22 270.457 464.159 270.896 464.159C271.177 464.159 271.499 464.193 271.862 464.261C272.23 464.326 272.584 464.46 272.925 464.665C273.269 464.869 273.555 465.178 273.783 465.591C274.01 466.004 274.124 466.557 274.124 467.25V473H272.783V471.818H272.714C272.624 472.008 272.472 472.21 272.26 472.426C272.048 472.642 271.766 472.826 271.413 472.977C271.061 473.129 270.631 473.205 270.124 473.205ZM270.328 472C270.858 472 271.305 471.896 271.669 471.688C272.036 471.479 272.313 471.21 272.499 470.881C272.688 470.551 272.783 470.205 272.783 469.841V468.614C272.726 468.682 272.601 468.744 272.408 468.801C272.218 468.854 271.999 468.902 271.749 468.943C271.502 468.981 271.262 469.015 271.027 469.045C270.796 469.072 270.608 469.095 270.464 469.114C270.116 469.159 269.79 469.233 269.487 469.335C269.188 469.434 268.946 469.583 268.76 469.784C268.578 469.981 268.487 470.25 268.487 470.591C268.487 471.057 268.66 471.409 269.004 471.648C269.353 471.883 269.794 472 270.328 472ZM276.571 473V464.273H277.866V465.591H277.957C278.116 465.159 278.404 464.809 278.821 464.54C279.238 464.271 279.707 464.136 280.23 464.136C280.329 464.136 280.452 464.138 280.599 464.142C280.747 464.146 280.859 464.152 280.935 464.159V465.523C280.889 465.511 280.785 465.494 280.622 465.472C280.463 465.445 280.295 465.432 280.116 465.432C279.692 465.432 279.313 465.521 278.98 465.699C278.651 465.873 278.389 466.116 278.196 466.426C278.007 466.733 277.912 467.083 277.912 467.477V473H276.571ZM285.554 473.182C284.827 473.182 284.185 472.998 283.628 472.631C283.071 472.259 282.635 471.737 282.321 471.062C282.007 470.384 281.849 469.583 281.849 468.659C281.849 467.742 282.007 466.947 282.321 466.273C282.635 465.598 283.073 465.078 283.634 464.71C284.194 464.343 284.842 464.159 285.577 464.159C286.145 464.159 286.594 464.254 286.923 464.443C287.257 464.629 287.51 464.841 287.685 465.08C287.863 465.314 288.001 465.508 288.099 465.659H288.213V461.364H289.554V473H288.259V471.659H288.099C288.001 471.818 287.861 472.019 287.679 472.261C287.497 472.5 287.238 472.714 286.901 472.903C286.563 473.089 286.115 473.182 285.554 473.182ZM285.736 471.977C286.274 471.977 286.728 471.837 287.099 471.557C287.471 471.273 287.753 470.881 287.946 470.381C288.139 469.877 288.236 469.295 288.236 468.636C288.236 467.985 288.141 467.415 287.952 466.926C287.762 466.434 287.482 466.051 287.111 465.778C286.74 465.502 286.281 465.364 285.736 465.364C285.168 465.364 284.694 465.509 284.315 465.801C283.94 466.089 283.658 466.481 283.469 466.977C283.283 467.47 283.19 468.023 283.19 468.636C283.19 469.258 283.285 469.822 283.474 470.33C283.668 470.833 283.952 471.235 284.327 471.534C284.705 471.83 285.175 471.977 285.736 471.977ZM292.196 473V464.273H293.537V473H292.196ZM292.878 462.818C292.616 462.818 292.391 462.729 292.202 462.551C292.016 462.373 291.923 462.159 291.923 461.909C291.923 461.659 292.016 461.445 292.202 461.267C292.391 461.089 292.616 461 292.878 461C293.139 461 293.363 461.089 293.548 461.267C293.738 461.445 293.832 461.659 293.832 461.909C293.832 462.159 293.738 462.373 293.548 462.551C293.363 462.729 293.139 462.818 292.878 462.818ZM295.743 473V471.977L300.697 465.614V465.523H295.902V464.273H302.425V465.341L297.607 471.659V471.75H302.584V473H295.743ZM308.058 473.182C307.217 473.182 306.492 472.996 305.882 472.625C305.276 472.25 304.808 471.727 304.479 471.057C304.153 470.383 303.99 469.598 303.99 468.705C303.99 467.811 304.153 467.023 304.479 466.341C304.808 465.655 305.267 465.121 305.854 464.739C306.445 464.352 307.134 464.159 307.922 464.159C308.376 464.159 308.825 464.235 309.268 464.386C309.712 464.538 310.115 464.784 310.479 465.125C310.842 465.462 311.132 465.909 311.348 466.466C311.564 467.023 311.672 467.708 311.672 468.523V469.091H304.945V467.932H310.308C310.308 467.439 310.21 467 310.013 466.614C309.82 466.227 309.543 465.922 309.183 465.699C308.827 465.475 308.407 465.364 307.922 465.364C307.388 465.364 306.926 465.496 306.536 465.761C306.149 466.023 305.852 466.364 305.643 466.784C305.435 467.205 305.331 467.655 305.331 468.136V468.909C305.331 469.568 305.445 470.127 305.672 470.585C305.903 471.04 306.223 471.386 306.632 471.625C307.041 471.86 307.517 471.977 308.058 471.977C308.411 471.977 308.729 471.928 309.013 471.83C309.301 471.727 309.549 471.576 309.757 471.375C309.965 471.17 310.126 470.917 310.24 470.614L311.536 470.977C311.399 471.417 311.17 471.803 310.848 472.136C310.526 472.466 310.128 472.723 309.655 472.909C309.181 473.091 308.649 473.182 308.058 473.182ZM317.007 473.182C316.28 473.182 315.638 472.998 315.081 472.631C314.524 472.259 314.089 471.737 313.774 471.062C313.46 470.384 313.303 469.583 313.303 468.659C313.303 467.742 313.46 466.947 313.774 466.273C314.089 465.598 314.526 465.078 315.087 464.71C315.647 464.343 316.295 464.159 317.03 464.159C317.598 464.159 318.047 464.254 318.376 464.443C318.71 464.629 318.964 464.841 319.138 465.08C319.316 465.314 319.454 465.508 319.553 465.659H319.666V461.364H321.007V473H319.712V471.659H319.553C319.454 471.818 319.314 472.019 319.132 472.261C318.95 472.5 318.691 472.714 318.354 472.903C318.017 473.089 317.568 473.182 317.007 473.182ZM317.189 471.977C317.727 471.977 318.181 471.837 318.553 471.557C318.924 471.273 319.206 470.881 319.399 470.381C319.592 469.877 319.689 469.295 319.689 468.636C319.689 467.985 319.594 467.415 319.405 466.926C319.215 466.434 318.935 466.051 318.564 465.778C318.193 465.502 317.734 465.364 317.189 465.364C316.621 465.364 316.147 465.509 315.768 465.801C315.393 466.089 315.111 466.481 314.922 466.977C314.736 467.47 314.643 468.023 314.643 468.636C314.643 469.258 314.738 469.822 314.928 470.33C315.121 470.833 315.405 471.235 315.78 471.534C316.159 471.83 316.628 471.977 317.189 471.977ZM328.149 473V464.273H329.49V473H328.149ZM328.831 462.818C328.57 462.818 328.344 462.729 328.155 462.551C327.969 462.373 327.876 462.159 327.876 461.909C327.876 461.659 327.969 461.445 328.155 461.267C328.344 461.089 328.57 461 328.831 461C329.092 461 329.316 461.089 329.501 461.267C329.691 461.445 329.786 461.659 329.786 461.909C329.786 462.159 329.691 462.373 329.501 462.551C329.316 462.729 329.092 462.818 328.831 462.818ZM333.287 467.75V473H331.946V464.273H333.241V465.636H333.355C333.56 465.193 333.87 464.837 334.287 464.568C334.704 464.295 335.241 464.159 335.901 464.159C336.491 464.159 337.009 464.28 337.452 464.523C337.895 464.761 338.24 465.125 338.486 465.614C338.732 466.098 338.855 466.712 338.855 467.455V473H337.514V467.545C337.514 466.86 337.336 466.326 336.98 465.943C336.624 465.557 336.135 465.364 335.514 465.364C335.086 465.364 334.704 465.456 334.366 465.642C334.033 465.828 333.77 466.098 333.577 466.455C333.384 466.811 333.287 467.242 333.287 467.75ZM341.305 476.273V464.273H342.601V465.659H342.76C342.858 465.508 342.995 465.314 343.169 465.08C343.347 464.841 343.601 464.629 343.93 464.443C344.264 464.254 344.714 464.159 345.283 464.159C346.018 464.159 346.665 464.343 347.226 464.71C347.786 465.078 348.224 465.598 348.538 466.273C348.853 466.947 349.01 467.742 349.01 468.659C349.01 469.583 348.853 470.384 348.538 471.062C348.224 471.737 347.788 472.259 347.232 472.631C346.675 472.998 346.033 473.182 345.305 473.182C344.745 473.182 344.296 473.089 343.959 472.903C343.622 472.714 343.362 472.5 343.18 472.261C342.999 472.019 342.858 471.818 342.76 471.659H342.646V476.273H341.305ZM342.624 468.636C342.624 469.295 342.72 469.877 342.913 470.381C343.107 470.881 343.389 471.273 343.76 471.557C344.131 471.837 344.586 471.977 345.124 471.977C345.684 471.977 346.152 471.83 346.527 471.534C346.906 471.235 347.19 470.833 347.379 470.33C347.572 469.822 347.669 469.258 347.669 468.636C347.669 468.023 347.574 467.47 347.385 466.977C347.199 466.481 346.917 466.089 346.538 465.801C346.163 465.509 345.692 465.364 345.124 465.364C344.578 465.364 344.12 465.502 343.749 465.778C343.377 466.051 343.097 466.434 342.908 466.926C342.718 467.415 342.624 467.985 342.624 468.636ZM356.555 469.432V464.273H357.896V473H356.555V471.523H356.464C356.26 471.966 355.942 472.343 355.51 472.653C355.078 472.96 354.533 473.114 353.874 473.114C353.328 473.114 352.843 472.994 352.419 472.756C351.995 472.513 351.661 472.15 351.419 471.665C351.177 471.176 351.055 470.561 351.055 469.818V464.273H352.396V469.727C352.396 470.364 352.574 470.871 352.93 471.25C353.29 471.629 353.749 471.818 354.305 471.818C354.639 471.818 354.978 471.733 355.322 471.562C355.671 471.392 355.963 471.131 356.197 470.778C356.436 470.426 356.555 469.977 356.555 469.432ZM364.148 464.273V465.409H359.625V464.273H364.148ZM360.943 462.182H362.284V470.5C362.284 470.879 362.339 471.163 362.449 471.352C362.563 471.538 362.706 471.663 362.881 471.727C363.059 471.788 363.246 471.818 363.443 471.818C363.591 471.818 363.712 471.811 363.807 471.795C363.902 471.777 363.977 471.761 364.034 471.75L364.307 472.955C364.216 472.989 364.089 473.023 363.926 473.057C363.763 473.095 363.557 473.114 363.307 473.114C362.928 473.114 362.557 473.032 362.193 472.869C361.833 472.706 361.534 472.458 361.295 472.125C361.061 471.792 360.943 471.371 360.943 470.864V462.182ZM372.006 461.364V473H370.665V461.364H372.006ZM377.03 473.205C376.477 473.205 375.975 473.1 375.524 472.892C375.073 472.68 374.715 472.375 374.45 471.977C374.185 471.576 374.053 471.091 374.053 470.523C374.053 470.023 374.151 469.617 374.348 469.307C374.545 468.992 374.808 468.746 375.138 468.568C375.467 468.39 375.831 468.258 376.229 468.17C376.63 468.08 377.034 468.008 377.439 467.955C377.969 467.886 378.399 467.835 378.729 467.801C379.062 467.763 379.304 467.701 379.456 467.614C379.611 467.527 379.689 467.375 379.689 467.159V467.114C379.689 466.553 379.536 466.117 379.229 465.807C378.926 465.496 378.465 465.341 377.848 465.341C377.208 465.341 376.706 465.481 376.342 465.761C375.979 466.042 375.723 466.341 375.575 466.659L374.303 466.205C374.53 465.674 374.833 465.261 375.212 464.966C375.594 464.667 376.011 464.458 376.462 464.341C376.916 464.22 377.363 464.159 377.803 464.159C378.083 464.159 378.405 464.193 378.768 464.261C379.136 464.326 379.49 464.46 379.831 464.665C380.176 464.869 380.462 465.178 380.689 465.591C380.916 466.004 381.03 466.557 381.03 467.25V473H379.689V471.818H379.621C379.53 472.008 379.378 472.21 379.166 472.426C378.954 472.642 378.672 472.826 378.32 472.977C377.967 473.129 377.537 473.205 377.03 473.205ZM377.234 472C377.765 472 378.212 471.896 378.575 471.688C378.943 471.479 379.219 471.21 379.405 470.881C379.594 470.551 379.689 470.205 379.689 469.841V468.614C379.632 468.682 379.507 468.744 379.314 468.801C379.125 468.854 378.905 468.902 378.655 468.943C378.409 468.981 378.168 469.015 377.933 469.045C377.702 469.072 377.515 469.095 377.371 469.114C377.022 469.159 376.696 469.233 376.393 469.335C376.094 469.434 375.852 469.583 375.666 469.784C375.484 469.981 375.393 470.25 375.393 470.591C375.393 471.057 375.566 471.409 375.911 471.648C376.259 471.883 376.7 472 377.234 472ZM384.028 476.273C383.801 476.273 383.598 476.254 383.42 476.216C383.242 476.182 383.119 476.148 383.051 476.114L383.392 474.932C383.718 475.015 384.006 475.045 384.256 475.023C384.506 475 384.727 474.888 384.92 474.688C385.117 474.491 385.297 474.17 385.46 473.727L385.71 473.045L382.483 464.273H383.938L386.347 471.227H386.438L388.847 464.273H390.301L386.597 474.273C386.43 474.723 386.223 475.097 385.977 475.392C385.731 475.691 385.445 475.913 385.119 476.057C384.797 476.201 384.434 476.273 384.028 476.273ZM395.418 473.182C394.577 473.182 393.851 472.996 393.241 472.625C392.635 472.25 392.168 471.727 391.838 471.057C391.512 470.383 391.349 469.598 391.349 468.705C391.349 467.811 391.512 467.023 391.838 466.341C392.168 465.655 392.626 465.121 393.213 464.739C393.804 464.352 394.493 464.159 395.281 464.159C395.736 464.159 396.185 464.235 396.628 464.386C397.071 464.538 397.474 464.784 397.838 465.125C398.202 465.462 398.491 465.909 398.707 466.466C398.923 467.023 399.031 467.708 399.031 468.523V469.091H392.304V467.932H397.668C397.668 467.439 397.569 467 397.372 466.614C397.179 466.227 396.902 465.922 396.543 465.699C396.187 465.475 395.766 465.364 395.281 465.364C394.747 465.364 394.285 465.496 393.895 465.761C393.509 466.023 393.211 466.364 393.003 466.784C392.795 467.205 392.69 467.655 392.69 468.136V468.909C392.69 469.568 392.804 470.127 393.031 470.585C393.262 471.04 393.582 471.386 393.991 471.625C394.401 471.86 394.876 471.977 395.418 471.977C395.77 471.977 396.088 471.928 396.372 471.83C396.66 471.727 396.908 471.576 397.116 471.375C397.325 471.17 397.486 470.917 397.599 470.614L398.895 470.977C398.759 471.417 398.529 471.803 398.207 472.136C397.885 472.466 397.488 472.723 397.014 472.909C396.541 473.091 396.009 473.182 395.418 473.182ZM401.071 473V464.273H402.366V465.591H402.457C402.616 465.159 402.904 464.809 403.321 464.54C403.738 464.271 404.207 464.136 404.73 464.136C404.829 464.136 404.952 464.138 405.099 464.142C405.247 464.146 405.359 464.152 405.435 464.159V465.523C405.389 465.511 405.285 465.494 405.122 465.472C404.963 465.445 404.795 465.432 404.616 465.432C404.192 465.432 403.813 465.521 403.48 465.699C403.151 465.873 402.889 466.116 402.696 466.426C402.507 466.733 402.412 467.083 402.412 467.477V473H401.071Z" fill="#3300FF"/>
<path d="M64.4091 433V421.364H71.3864V422.614H65.8182V426.545H70.8636V427.795H65.8182V433H64.4091ZM74.9588 421.364V433H73.6179V421.364H74.9588ZM79.983 433.205C79.4299 433.205 78.928 433.1 78.4773 432.892C78.0265 432.68 77.6686 432.375 77.4034 431.977C77.1383 431.576 77.0057 431.091 77.0057 430.523C77.0057 430.023 77.1042 429.617 77.3011 429.307C77.4981 428.992 77.7614 428.746 78.0909 428.568C78.4205 428.39 78.7841 428.258 79.1818 428.17C79.5833 428.08 79.9867 428.008 80.392 427.955C80.9223 427.886 81.3523 427.835 81.6818 427.801C82.0152 427.763 82.2576 427.701 82.4091 427.614C82.5644 427.527 82.642 427.375 82.642 427.159V427.114C82.642 426.553 82.4886 426.117 82.1818 425.807C81.8788 425.496 81.4186 425.341 80.8011 425.341C80.161 425.341 79.6591 425.481 79.2955 425.761C78.9318 426.042 78.6761 426.341 78.5284 426.659L77.2557 426.205C77.483 425.674 77.786 425.261 78.1648 424.966C78.5473 424.667 78.964 424.458 79.4148 424.341C79.8693 424.22 80.3163 424.159 80.7557 424.159C81.036 424.159 81.358 424.193 81.7216 424.261C82.089 424.326 82.4432 424.46 82.7841 424.665C83.1288 424.869 83.4148 425.178 83.642 425.591C83.8693 426.004 83.983 426.557 83.983 427.25V433H82.642V431.818H82.5739C82.483 432.008 82.3314 432.21 82.1193 432.426C81.9072 432.642 81.625 432.826 81.2727 432.977C80.9205 433.129 80.4905 433.205 79.983 433.205ZM80.1875 432C80.7178 432 81.1648 431.896 81.5284 431.688C81.8958 431.479 82.1723 431.21 82.358 430.881C82.5473 430.551 82.642 430.205 82.642 429.841V428.614C82.5852 428.682 82.4602 428.744 82.267 428.801C82.0777 428.854 81.858 428.902 81.608 428.943C81.3617 428.981 81.1212 429.015 80.8864 429.045C80.6553 429.072 80.4678 429.095 80.3239 429.114C79.9754 429.159 79.6496 429.233 79.3466 429.335C79.0473 429.434 78.8049 429.583 78.6193 429.784C78.4375 429.981 78.3466 430.25 78.3466 430.591C78.3466 431.057 78.5189 431.409 78.8636 431.648C79.2121 431.883 79.6534 432 80.1875 432ZM90.2259 424.273V425.409H85.7031V424.273H90.2259ZM87.0213 422.182H88.3622V430.5C88.3622 430.879 88.4171 431.163 88.527 431.352C88.6406 431.538 88.7846 431.663 88.9588 431.727C89.1368 431.788 89.3243 431.818 89.5213 431.818C89.669 431.818 89.7902 431.811 89.8849 431.795C89.9796 431.777 90.0554 431.761 90.1122 431.75L90.3849 432.955C90.294 432.989 90.1671 433.023 90.0043 433.057C89.8414 433.095 89.6349 433.114 89.3849 433.114C89.0062 433.114 88.6349 433.032 88.2713 432.869C87.9115 432.706 87.6122 432.458 87.3736 432.125C87.1387 431.792 87.0213 431.371 87.0213 430.864V422.182ZM96.0384 424.273V425.409H91.5156V424.273H96.0384ZM92.8338 422.182H94.1747V430.5C94.1747 430.879 94.2296 431.163 94.3395 431.352C94.4531 431.538 94.5971 431.663 94.7713 431.727C94.9493 431.788 95.1368 431.818 95.3338 431.818C95.4815 431.818 95.6027 431.811 95.6974 431.795C95.7921 431.777 95.8679 431.761 95.9247 431.75L96.1974 432.955C96.1065 432.989 95.9796 433.023 95.8168 433.057C95.6539 433.095 95.4474 433.114 95.1974 433.114C94.8187 433.114 94.4474 433.032 94.0838 432.869C93.724 432.706 93.4247 432.458 93.1861 432.125C92.9512 431.792 92.8338 431.371 92.8338 430.864V422.182ZM101.621 433.182C100.78 433.182 100.054 432.996 99.4446 432.625C98.8385 432.25 98.3707 431.727 98.0412 431.057C97.7154 430.383 97.5526 429.598 97.5526 428.705C97.5526 427.811 97.7154 427.023 98.0412 426.341C98.3707 425.655 98.8291 425.121 99.4162 424.739C100.007 424.352 100.696 424.159 101.484 424.159C101.939 424.159 102.388 424.235 102.831 424.386C103.274 424.538 103.678 424.784 104.041 425.125C104.405 425.462 104.695 425.909 104.911 426.466C105.126 427.023 105.234 427.708 105.234 428.523V429.091H98.5071V427.932H103.871C103.871 427.439 103.772 427 103.575 426.614C103.382 426.227 103.106 425.922 102.746 425.699C102.39 425.475 101.969 425.364 101.484 425.364C100.95 425.364 100.488 425.496 100.098 425.761C99.7116 426.023 99.4143 426.364 99.206 426.784C98.9976 427.205 98.8935 427.655 98.8935 428.136V428.909C98.8935 429.568 99.0071 430.127 99.2344 430.585C99.4654 431.04 99.7855 431.386 100.195 431.625C100.604 431.86 101.079 431.977 101.621 431.977C101.973 431.977 102.291 431.928 102.575 431.83C102.863 431.727 103.111 431.576 103.32 431.375C103.528 431.17 103.689 430.917 103.803 430.614L105.098 430.977C104.962 431.417 104.732 431.803 104.411 432.136C104.089 432.466 103.691 432.723 103.217 432.909C102.744 433.091 102.212 433.182 101.621 433.182ZM108.615 427.75V433H107.274V424.273H108.57V425.636H108.683C108.888 425.193 109.198 424.837 109.615 424.568C110.032 424.295 110.57 424.159 111.229 424.159C111.82 424.159 112.337 424.28 112.78 424.523C113.223 424.761 113.568 425.125 113.814 425.614C114.06 426.098 114.183 426.712 114.183 427.455V433H112.842V427.545C112.842 426.86 112.664 426.326 112.308 425.943C111.952 425.557 111.464 425.364 110.842 425.364C110.414 425.364 110.032 425.456 109.695 425.642C109.361 425.828 109.098 426.098 108.905 426.455C108.712 426.811 108.615 427.242 108.615 427.75ZM125.634 433V424.273H126.974V433H125.634ZM126.315 422.818C126.054 422.818 125.829 422.729 125.639 422.551C125.454 422.373 125.361 422.159 125.361 421.909C125.361 421.659 125.454 421.445 125.639 421.267C125.829 421.089 126.054 421 126.315 421C126.577 421 126.8 421.089 126.986 421.267C127.175 421.445 127.27 421.659 127.27 421.909C127.27 422.159 127.175 422.373 126.986 422.551C126.8 422.729 126.577 422.818 126.315 422.818ZM129.43 433V424.273H130.726V425.636H130.839C131.021 425.17 131.315 424.809 131.72 424.551C132.125 424.29 132.612 424.159 133.18 424.159C133.756 424.159 134.235 424.29 134.618 424.551C135.004 424.809 135.305 425.17 135.521 425.636H135.612C135.836 425.186 136.171 424.828 136.618 424.562C137.065 424.294 137.601 424.159 138.226 424.159C139.006 424.159 139.644 424.403 140.141 424.892C140.637 425.377 140.885 426.133 140.885 427.159V433H139.544V427.159C139.544 426.515 139.368 426.055 139.016 425.778C138.663 425.502 138.249 425.364 137.771 425.364C137.158 425.364 136.682 425.549 136.345 425.92C136.008 426.288 135.839 426.754 135.839 427.318V433H134.476V427.023C134.476 426.527 134.315 426.127 133.993 425.824C133.671 425.517 133.256 425.364 132.749 425.364C132.4 425.364 132.074 425.456 131.771 425.642C131.472 425.828 131.23 426.085 131.044 426.415C130.862 426.741 130.771 427.117 130.771 427.545V433H129.43ZM145.905 433.205C145.352 433.205 144.85 433.1 144.399 432.892C143.948 432.68 143.59 432.375 143.325 431.977C143.06 431.576 142.928 431.091 142.928 430.523C142.928 430.023 143.026 429.617 143.223 429.307C143.42 428.992 143.683 428.746 144.013 428.568C144.342 428.39 144.706 428.258 145.104 428.17C145.505 428.08 145.909 428.008 146.314 427.955C146.844 427.886 147.274 427.835 147.604 427.801C147.937 427.763 148.179 427.701 148.331 427.614C148.486 427.527 148.564 427.375 148.564 427.159V427.114C148.564 426.553 148.411 426.117 148.104 425.807C147.801 425.496 147.34 425.341 146.723 425.341C146.083 425.341 145.581 425.481 145.217 425.761C144.854 426.042 144.598 426.341 144.45 426.659L143.178 426.205C143.405 425.674 143.708 425.261 144.087 424.966C144.469 424.667 144.886 424.458 145.337 424.341C145.791 424.22 146.238 424.159 146.678 424.159C146.958 424.159 147.28 424.193 147.643 424.261C148.011 424.326 148.365 424.46 148.706 424.665C149.051 424.869 149.337 425.178 149.564 425.591C149.791 426.004 149.905 426.557 149.905 427.25V433H148.564V431.818H148.496C148.405 432.008 148.253 432.21 148.041 432.426C147.829 432.642 147.547 432.826 147.195 432.977C146.842 433.129 146.412 433.205 145.905 433.205ZM146.109 432C146.64 432 147.087 431.896 147.45 431.688C147.818 431.479 148.094 431.21 148.28 430.881C148.469 430.551 148.564 430.205 148.564 429.841V428.614C148.507 428.682 148.382 428.744 148.189 428.801C148 428.854 147.78 428.902 147.53 428.943C147.284 428.981 147.043 429.015 146.808 429.045C146.577 429.072 146.39 429.095 146.246 429.114C145.897 429.159 145.571 429.233 145.268 429.335C144.969 429.434 144.727 429.583 144.541 429.784C144.359 429.981 144.268 430.25 144.268 430.591C144.268 431.057 144.441 431.409 144.786 431.648C145.134 431.883 145.575 432 146.109 432ZM155.875 436.455C155.227 436.455 154.67 436.371 154.205 436.205C153.739 436.042 153.35 435.826 153.04 435.557C152.733 435.292 152.489 435.008 152.307 434.705L153.375 433.955C153.496 434.114 153.65 434.295 153.835 434.5C154.021 434.708 154.275 434.888 154.597 435.04C154.922 435.195 155.348 435.273 155.875 435.273C156.58 435.273 157.161 435.102 157.619 434.761C158.078 434.42 158.307 433.886 158.307 433.159V431.386H158.193C158.095 431.545 157.955 431.742 157.773 431.977C157.595 432.208 157.337 432.415 157 432.597C156.667 432.775 156.216 432.864 155.648 432.864C154.943 432.864 154.311 432.697 153.75 432.364C153.193 432.03 152.752 431.545 152.426 430.909C152.104 430.273 151.943 429.5 151.943 428.591C151.943 427.697 152.1 426.919 152.415 426.256C152.729 425.589 153.167 425.074 153.727 424.71C154.288 424.343 154.936 424.159 155.67 424.159C156.239 424.159 156.689 424.254 157.023 424.443C157.36 424.629 157.617 424.841 157.795 425.08C157.977 425.314 158.117 425.508 158.216 425.659H158.352V424.273H159.648V433.25C159.648 434 159.477 434.61 159.136 435.08C158.799 435.553 158.345 435.9 157.773 436.119C157.205 436.343 156.572 436.455 155.875 436.455ZM155.83 431.659C156.367 431.659 156.822 431.536 157.193 431.29C157.564 431.044 157.847 430.689 158.04 430.227C158.233 429.765 158.33 429.212 158.33 428.568C158.33 427.939 158.235 427.384 158.045 426.903C157.856 426.422 157.576 426.045 157.205 425.773C156.833 425.5 156.375 425.364 155.83 425.364C155.261 425.364 154.788 425.508 154.409 425.795C154.034 426.083 153.752 426.47 153.562 426.955C153.377 427.439 153.284 427.977 153.284 428.568C153.284 429.174 153.379 429.71 153.568 430.176C153.761 430.638 154.045 431.002 154.42 431.267C154.799 431.528 155.269 431.659 155.83 431.659ZM165.761 433.182C164.92 433.182 164.195 432.996 163.585 432.625C162.979 432.25 162.511 431.727 162.182 431.057C161.856 430.383 161.693 429.598 161.693 428.705C161.693 427.811 161.856 427.023 162.182 426.341C162.511 425.655 162.97 425.121 163.557 424.739C164.148 424.352 164.837 424.159 165.625 424.159C166.08 424.159 166.528 424.235 166.972 424.386C167.415 424.538 167.818 424.784 168.182 425.125C168.545 425.462 168.835 425.909 169.051 426.466C169.267 427.023 169.375 427.708 169.375 428.523V429.091H162.648V427.932H168.011C168.011 427.439 167.913 427 167.716 426.614C167.523 426.227 167.246 425.922 166.886 425.699C166.53 425.475 166.11 425.364 165.625 425.364C165.091 425.364 164.629 425.496 164.239 425.761C163.852 426.023 163.555 426.364 163.347 426.784C163.138 427.205 163.034 427.655 163.034 428.136V428.909C163.034 429.568 163.148 430.127 163.375 430.585C163.606 431.04 163.926 431.386 164.335 431.625C164.744 431.86 165.22 431.977 165.761 431.977C166.114 431.977 166.432 431.928 166.716 431.83C167.004 431.727 167.252 431.576 167.46 431.375C167.669 431.17 167.83 430.917 167.943 430.614L169.239 430.977C169.102 431.417 168.873 431.803 168.551 432.136C168.229 432.466 167.831 432.723 167.358 432.909C166.884 433.091 166.352 433.182 165.761 433.182ZM179.21 433.182C178.483 433.182 177.841 432.998 177.284 432.631C176.727 432.259 176.292 431.737 175.977 431.062C175.663 430.384 175.506 429.583 175.506 428.659C175.506 427.742 175.663 426.947 175.977 426.273C176.292 425.598 176.729 425.078 177.29 424.71C177.85 424.343 178.498 424.159 179.233 424.159C179.801 424.159 180.25 424.254 180.58 424.443C180.913 424.629 181.167 424.841 181.341 425.08C181.519 425.314 181.657 425.508 181.756 425.659H181.869V421.364H183.21V433H181.915V431.659H181.756C181.657 431.818 181.517 432.019 181.335 432.261C181.153 432.5 180.894 432.714 180.557 432.903C180.22 433.089 179.771 433.182 179.21 433.182ZM179.392 431.977C179.93 431.977 180.384 431.837 180.756 431.557C181.127 431.273 181.409 430.881 181.602 430.381C181.795 429.877 181.892 429.295 181.892 428.636C181.892 427.985 181.797 427.415 181.608 426.926C181.419 426.434 181.138 426.051 180.767 425.778C180.396 425.502 179.938 425.364 179.392 425.364C178.824 425.364 178.35 425.509 177.972 425.801C177.597 426.089 177.314 426.481 177.125 426.977C176.939 427.47 176.847 428.023 176.847 428.636C176.847 429.258 176.941 429.822 177.131 430.33C177.324 430.833 177.608 431.235 177.983 431.534C178.362 431.83 178.831 431.977 179.392 431.977ZM188.42 433.205C187.867 433.205 187.366 433.1 186.915 432.892C186.464 432.68 186.106 432.375 185.841 431.977C185.576 431.576 185.443 431.091 185.443 430.523C185.443 430.023 185.542 429.617 185.739 429.307C185.936 428.992 186.199 428.746 186.528 428.568C186.858 428.39 187.222 428.258 187.619 428.17C188.021 428.08 188.424 428.008 188.83 427.955C189.36 427.886 189.79 427.835 190.119 427.801C190.453 427.763 190.695 427.701 190.847 427.614C191.002 427.527 191.08 427.375 191.08 427.159V427.114C191.08 426.553 190.926 426.117 190.619 425.807C190.316 425.496 189.856 425.341 189.239 425.341C188.598 425.341 188.097 425.481 187.733 425.761C187.369 426.042 187.114 426.341 186.966 426.659L185.693 426.205C185.92 425.674 186.223 425.261 186.602 424.966C186.985 424.667 187.402 424.458 187.852 424.341C188.307 424.22 188.754 424.159 189.193 424.159C189.473 424.159 189.795 424.193 190.159 424.261C190.527 424.326 190.881 424.46 191.222 424.665C191.566 424.869 191.852 425.178 192.08 425.591C192.307 426.004 192.42 426.557 192.42 427.25V433H191.08V431.818H191.011C190.92 432.008 190.769 432.21 190.557 432.426C190.345 432.642 190.063 432.826 189.71 432.977C189.358 433.129 188.928 433.205 188.42 433.205ZM188.625 432C189.155 432 189.602 431.896 189.966 431.688C190.333 431.479 190.61 431.21 190.795 430.881C190.985 430.551 191.08 430.205 191.08 429.841V428.614C191.023 428.682 190.898 428.744 190.705 428.801C190.515 428.854 190.295 428.902 190.045 428.943C189.799 428.981 189.559 429.015 189.324 429.045C189.093 429.072 188.905 429.095 188.761 429.114C188.413 429.159 188.087 429.233 187.784 429.335C187.485 429.434 187.242 429.583 187.057 429.784C186.875 429.981 186.784 430.25 186.784 430.591C186.784 431.057 186.956 431.409 187.301 431.648C187.65 431.883 188.091 432 188.625 432ZM198.663 424.273V425.409H194.141V424.273H198.663ZM195.459 422.182H196.8V430.5C196.8 430.879 196.855 431.163 196.964 431.352C197.078 431.538 197.222 431.663 197.396 431.727C197.574 431.788 197.762 431.818 197.959 431.818C198.107 431.818 198.228 431.811 198.322 431.795C198.417 431.777 198.493 431.761 198.55 431.75L198.822 432.955C198.732 432.989 198.605 433.023 198.442 433.057C198.279 433.095 198.072 433.114 197.822 433.114C197.444 433.114 197.072 433.032 196.709 432.869C196.349 432.706 196.05 432.458 195.811 432.125C195.576 431.792 195.459 431.371 195.459 430.864V422.182ZM203.249 433.205C202.696 433.205 202.194 433.1 201.743 432.892C201.292 432.68 200.934 432.375 200.669 431.977C200.404 431.576 200.271 431.091 200.271 430.523C200.271 430.023 200.37 429.617 200.567 429.307C200.764 428.992 201.027 428.746 201.357 428.568C201.686 428.39 202.05 428.258 202.447 428.17C202.849 428.08 203.252 428.008 203.658 427.955C204.188 427.886 204.618 427.835 204.947 427.801C205.281 427.763 205.523 427.701 205.675 427.614C205.83 427.527 205.908 427.375 205.908 427.159V427.114C205.908 426.553 205.754 426.117 205.447 425.807C205.144 425.496 204.684 425.341 204.067 425.341C203.427 425.341 202.925 425.481 202.561 425.761C202.197 426.042 201.942 426.341 201.794 426.659L200.521 426.205C200.749 425.674 201.052 425.261 201.43 424.966C201.813 424.667 202.23 424.458 202.68 424.341C203.135 424.22 203.582 424.159 204.021 424.159C204.302 424.159 204.624 424.193 204.987 424.261C205.355 424.326 205.709 424.46 206.05 424.665C206.394 424.869 206.68 425.178 206.908 425.591C207.135 426.004 207.249 426.557 207.249 427.25V433H205.908V431.818H205.839C205.749 432.008 205.597 432.21 205.385 432.426C205.173 432.642 204.891 432.826 204.538 432.977C204.186 433.129 203.756 433.205 203.249 433.205ZM203.453 432C203.983 432 204.43 431.896 204.794 431.688C205.161 431.479 205.438 431.21 205.624 430.881C205.813 430.551 205.908 430.205 205.908 429.841V428.614C205.851 428.682 205.726 428.744 205.533 428.801C205.343 428.854 205.124 428.902 204.874 428.943C204.627 428.981 204.387 429.015 204.152 429.045C203.921 429.072 203.733 429.095 203.589 429.114C203.241 429.159 202.915 429.233 202.612 429.335C202.313 429.434 202.071 429.583 201.885 429.784C201.703 429.981 201.612 430.25 201.612 430.591C201.612 431.057 201.785 431.409 202.129 431.648C202.478 431.883 202.919 432 203.453 432Z" fill="#FF00D6"/>
<path d="M228.5 405.5V431H317M405.5 405.5V431H317M317 431V450" stroke="#3300FF"/>
</svg>
